  0
SECTION
  2
HEADER
  9
$ACADVER
  1
AC1009
  9
$INSBASE
 10
0.0
 20
0.0
 30
0.0
  9
$EXTMIN
 10
0.0
 20
0.0
 30
0.0
  9
$EXTMAX
 10
0.0
 20
0.0
 30
0.0
  0
ENDSEC
  0
SECTION
  2
TABLES
  0
TABLE
  2
VPORT
 70
0
  0
ENDTAB
  0
TABLE
  2
LTYPE
 70
1
  0
LTYPE
  2
CONTINUOUS
 70
0
  3
Solid line
 72
65
 73
0
 40
0.0
  0
ENDTAB
  0
TABLE
  2
LAYER
 70
1
  0
LAYER
  2
0
 70
64
 62
7
  6
continuous
  0
ENDTAB
  0
TABLE
  2
STYLE
 70
1
  0
STYLE
  2
STANDARD
 70
0
 40
0
 41
1.0
 50
0.0
 71
0
 42
1
 3
ARIAL.TTF
 4

  0
ENDTAB
  0
TABLE
  2
VIEW
 70
0
  0
ENDTAB
  0
ENDSEC
  0
SECTION
  2
BLOCKS
  0
BLOCK
  8
0
  2
PART__FEATURE
 70
0
 10
0.0
 20
0.0
 30
0.0
  3
PART__FEATURE
  0
LINE
  8
0
 62
0
 10
-3.1
 20
4.61
 30
0.0
 11
-3.1
 21
3.91277508341
 31
0.0
  0
LINE
  8
0
 62
0
 10
-3.125
 20
4.71
 30
0.0
 11
-3.05
 21
4.71
 31
0.0
  0
LINE
  8
0
 62
0
 10
-2.75
 20
4.71
 30
0.0
 11
-2.675
 21
4.71
 31
0.0
  0
LINE
  8
0
 62
0
 10
-3.05
 20
5.95
 30
0.0
 11
-3.05
 21
5.45083217913
 31
0.0
  0
LINE
  8
0
 62
0
 10
-3.05
 20
5.45083217913
 30
0.0
 11
-3.05
 21
5.30349940838
 31
0.0
  0
LINE
  8
0
 62
0
 10
-3.05
 20
5.30349940838
 30
0.0
 11
-3.05
 21
5.15
 31
0.0
  0
LINE
  8
0
 62
0
 10
-3.05
 20
5.15
 30
0.0
 11
-3.05
 21
4.61
 31
0.0
  0
LINE
  8
0
 62
0
 10
4.575
 20
4.71
 30
0.0
 11
4.65
 21
4.71
 31
0.0
  0
LINE
  8
0
 62
0
 10
4.575
 20
4.71
 30
0.0
 11
3.925
 21
4.71
 31
0.0
  0
LINE
  8
0
 62
0
 10
3.85
 20
4.71
 30
0.0
 11
3.925
 21
4.71
 31
0.0
  0
LINE
  8
0
 62
0
 10
3.475
 20
4.71
 30
0.0
 11
3.55
 21
4.71
 31
0.0
  0
LINE
  8
0
 62
0
 10
3.475
 20
4.71
 30
0.0
 11
2.825
 21
4.71
 31
0.0
  0
LINE
  8
0
 62
0
 10
2.75
 20
4.71
 30
0.0
 11
2.825
 21
4.71
 31
0.0
  0
LINE
  8
0
 62
0
 10
2.375
 20
4.71
 30
0.0
 11
2.45
 21
4.71
 31
0.0
  0
LINE
  8
0
 62
0
 10
2.375
 20
4.71
 30
0.0
 11
1.725
 21
4.71
 31
0.0
  0
LINE
  8
0
 62
0
 10
1.65
 20
4.71
 30
0.0
 11
1.725
 21
4.71
 31
0.0
  0
LINE
  8
0
 62
0
 10
1.275
 20
4.71
 30
0.0
 11
1.35
 21
4.71
 31
0.0
  0
LINE
  8
0
 62
0
 10
1.275
 20
4.71
 30
0.0
 11
0.625
 21
4.71
 31
0.0
  0
LINE
  8
0
 62
0
 10
0.55
 20
4.71
 30
0.0
 11
0.625
 21
4.71
 31
0.0
  0
LINE
  8
0
 62
0
 10
0.175
 20
4.71
 30
0.0
 11
0.25
 21
4.71
 31
0.0
  0
LINE
  8
0
 62
0
 10
0.175
 20
4.71
 30
0.0
 11
-0.475
 21
4.71
 31
0.0
  0
LINE
  8
0
 62
0
 10
-0.55
 20
4.71
 30
0.0
 11
-0.475
 21
4.71
 31
0.0
  0
LINE
  8
0
 62
0
 10
-0.925
 20
4.71
 30
0.0
 11
-0.85
 21
4.71
 31
0.0
  0
LINE
  8
0
 62
0
 10
-0.925
 20
4.71
 30
0.0
 11
-1.575
 21
4.71
 31
0.0
  0
LINE
  8
0
 62
0
 10
-1.65
 20
4.71
 30
0.0
 11
-1.575
 21
4.71
 31
0.0
  0
LINE
  8
0
 62
0
 10
-2.025
 20
4.71
 30
0.0
 11
-1.95
 21
4.71
 31
0.0
  0
LINE
  8
0
 62
0
 10
-2.025
 20
4.71
 30
0.0
 11
-2.675
 21
4.71
 31
0.0
  0
LINE
  8
0
 62
0
 10
-3.125
 20
4.71
 30
0.0
 11
-3.43
 21
4.71
 31
0.0
  0
LINE
  8
0
 62
0
 10
5.35
 20
4.71
 30
0.0
 11
5.025
 21
4.71
 31
0.0
  0
LINE
  8
0
 62
0
 10
4.95
 20
4.71
 30
0.0
 11
5.025
 21
4.71
 31
0.0
  0
LINE
  8
0
 62
0
 10
4.95
 20
5.15
 30
0.0
 11
4.95
 21
4.61
 31
0.0
  0
LINE
  8
0
 62
0
 10
4.95
 20
5.30349940838
 30
0.0
 11
4.95
 21
5.15
 31
0.0
  0
LINE
  8
0
 62
0
 10
4.95
 20
5.45083217913
 30
0.0
 11
4.95
 21
5.30349940838
 31
0.0
  0
LINE
  8
0
 62
0
 10
4.95
 20
5.95
 30
0.0
 11
4.95
 21
5.45083217913
 31
0.0
  0
LINE
  8
0
 62
0
 10
4.575
 20
3.82796131698
 30
0.0
 11
4.575
 21
4.71
 31
0.0
  0
LINE
  8
0
 62
0
 10
4.65
 20
5.95
 30
0.0
 11
4.65
 21
5.45083217913
 31
0.0
  0
LINE
  8
0
 62
0
 10
4.65
 20
5.45083217913
 30
0.0
 11
4.65
 21
5.30349940838
 31
0.0
  0
LINE
  8
0
 62
0
 10
4.65
 20
5.30349940838
 30
0.0
 11
4.65
 21
5.15
 31
0.0
  0
LINE
  8
0
 62
0
 10
4.65
 20
5.15
 30
0.0
 11
4.65
 21
4.61
 31
0.0
  0
LINE
  8
0
 62
0
 10
4.65
 20
5.95
 30
0.0
 11
4.95
 21
5.95
 31
0.0
  0
LINE
  8
0
 62
0
 10
4.65
 20
5.45083217913
 30
0.0
 11
4.95
 21
5.45083217913
 31
0.0
  0
LINE
  8
0
 62
0
 10
4.6
 20
4.61
 30
0.0
 11
4.65
 21
4.61
 31
0.0
  0
LINE
  8
0
 62
0
 10
4.95
 20
4.61
 30
0.0
 11
5.0
 21
4.61
 31
0.0
  0
LINE
  8
0
 62
0
 10
5.0
 20
4.61
 30
0.0
 11
5.0
 21
3.91277508341
 31
0.0
  0
LINE
  8
0
 62
0
 10
4.6
 20
4.61
 30
0.0
 11
4.6
 21
3.83268051856
 31
0.0
  0
LINE
  8
0
 62
0
 10
5.025
 20
3.91806904923
 30
0.0
 11
5.025
 21
4.71
 31
0.0
  0
LINE
  8
0
 62
0
 10
-2.025
 20
3.71697972451
 30
0.0
 11
-2.025
 21
4.71
 31
0.0
  0
LINE
  8
0
 62
0
 10
-2.675
 20
3.82796131698
 30
0.0
 11
-2.675
 21
4.71
 31
0.0
  0
LINE
  8
0
 62
0
 10
-0.925
 20
3.57984439099
 30
0.0
 11
-0.925
 21
4.71
 31
0.0
  0
LINE
  8
0
 62
0
 10
-1.575
 20
3.65323998708
 30
0.0
 11
-1.575
 21
4.71
 31
0.0
  0
LINE
  8
0
 62
0
 10
0.175
 20
3.50532023737
 30
0.0
 11
0.175
 21
4.71
 31
0.0
  0
LINE
  8
0
 62
0
 10
-0.475
 20
3.54184377299
 30
0.0
 11
-0.475
 21
4.71
 31
0.0
  0
LINE
  8
0
 62
0
 10
1.275
 20
3.49269332621
 30
0.0
 11
1.275
 21
4.71
 31
0.0
  0
LINE
  8
0
 62
0
 10
0.625
 20
3.49269332621
 30
0.0
 11
0.625
 21
4.71
 31
0.0
  0
LINE
  8
0
 62
0
 10
2.375
 20
3.54184377299
 30
0.0
 11
2.375
 21
4.71
 31
0.0
  0
LINE
  8
0
 62
0
 10
1.725
 20
3.50532023737
 30
0.0
 11
1.725
 21
4.71
 31
0.0
  0
LINE
  8
0
 62
0
 10
3.475
 20
3.65323998708
 30
0.0
 11
3.475
 21
4.71
 31
0.0
  0
LINE
  8
0
 62
0
 10
2.825
 20
3.57984439099
 30
0.0
 11
2.825
 21
4.71
 31
0.0
  0
LINE
  8
0
 62
0
 10
4.575
 20
3.82796131698
 30
0.0
 11
4.575
 21
4.71
 31
0.0
  0
LINE
  8
0
 62
0
 10
3.925
 20
3.71697972451
 30
0.0
 11
3.925
 21
4.71
 31
0.0
  0
LINE
  8
0
 62
0
 10
5.43
 20
5.85396078054
 30
0.0
 11
5.43
 21
7.34
 31
0.0
  0
LINE
  8
0
 62
0
 10
5.43
 20
7.34
 30
0.0
 11
5.95
 21
7.34
 31
0.0
  0
LINE
  8
0
 62
0
 10
6.91
 20
6.34
 30
0.0
 11
6.91
 21
6.14970562748
 31
0.0
  0
LINE
  8
0
 62
0
 10
6.91
 20
6.02898979486
 30
0.0
 11
6.91
 21
5.95
 31
0.0
  0
LINE
  8
0
 62
0
 10
-3.94
 20
-5.45
 30
0.0
 11
-3.94
 21
-5.83
 31
0.0
  0
LINE
  8
0
 62
0
 10
-3.94
 20
-5.45
 30
0.0
 11
-4.4
 21
-5.45
 31
0.0
  0
LINE
  8
0
 62
0
 10
-4.06
 20
6.59889130435
 30
0.0
 11
-4.06
 21
7.02
 31
0.0
  0
LINE
  8
0
 62
0
 10
-4.06
 20
7.02
 30
0.0
 11
-4.56
 21
7.02
 31
0.0
  0
LINE
  8
0
 62
0
 10
-4.56
 20
7.02
 30
0.0
 11
-4.66
 21
7.12
 31
0.0
  0
LINE
  8
0
 62
0
 10
-4.81
 20
7.12
 30
0.0
 11
-4.66
 21
7.12
 31
0.0
  0
LINE
  8
0
 62
0
 10
-5.26
 20
7.34
 30
0.0
 11
-3.80333333333
 21
7.34
 31
0.0
  0
LINE
  8
0
 62
0
 10
-3.43
 20
5.94
 30
0.0
 11
-3.45
 21
6.015
 31
0.0
  0
LINE
  8
0
 62
0
 10
-3.579947907
 20
6.50230465124
 30
0.0
 11
-3.80333333333
 21
7.34
 31
0.0
  0
LINE
  8
0
 62
0
 10
-3.43
 20
5.94
 30
0.0
 11
-3.43
 21
4.71
 31
0.0
  0
LINE
  8
0
 62
0
 10
-3.125
 20
3.91806904923
 30
0.0
 11
-3.125
 21
4.71
 31
0.0
  0
LINE
  8
0
 62
0
 10
-3.38
 20
-0.55
 30
0.0
 11
-3.38
 21
-3.07
 31
0.0
  0
ARC
  8
0
 62
0
 10
0.950000000001
 20
1.64286537045
 30
0.0
 40
6.4
 50
-132.575605154
 51
-129.257929851
  0
LINE
  8
0
 62
0
 10
-0.05
 20
-1.42
 30
0.0
 11
-0.05
 21
-3.06
 31
0.0
  0
LINE
  8
0
 62
0
 10
-5.29
 20
7.26
 30
0.0
 11
-5.29
 21
6.762
 31
0.0
  0
LINE
  8
0
 62
0
 10
-5.29
 20
6.762
 30
0.0
 11
-3.71056263448
 21
6.55255287109
 31
0.0
  0
ARC
  8
0
 62
0
 10
-3.75
 20
6.25515634421
 30
0.0
 40
0.3
 50
0.0
 51
82.4461539611
  0
LINE
  8
0
 62
0
 10
-3.45
 20
6.25515634421
 30
0.0
 11
-3.45
 21
4.23028617069
 31
0.0
  0
ARC
  8
0
 62
0
 10
-3.15
 20
4.23028617069
 30
0.0
 40
0.3
 50
-180.0
 51
-102.258650986
  0
ARC
  8
0
 62
0
 10
0.95
 20
23.1
 30
0.0
 40
19.61
 50
-102.258650986
 51
-77.741349014
  0
ARC
  8
0
 62
0
 10
5.05
 20
4.23028617069
 30
0.0
 40
0.3
 50
-77.741349014
 51
-0.0
  0
LINE
  8
0
 62
0
 10
5.35
 20
4.23028617069
 30
0.0
 11
5.35
 21
5.65
 31
0.0
  0
ARC
  8
0
 62
0
 10
5.65
 20
5.65
 30
0.0
 40
0.3
 50
90.0
 51
-180.0
  0
LINE
  8
0
 62
0
 10
6.88
 20
5.95
 30
0.0
 11
5.65
 21
5.95
 31
0.0
  0
LINE
  8
0
 62
0
 10
6.88
 20
1.6
 30
0.0
 11
6.36
 21
1.6
 31
0.0
  0
LINE
  8
0
 62
0
 10
6.36
 20
0.6
 30
0.0
 11
6.36
 21
1.6
 31
0.0
  0
LINE
  8
0
 62
0
 10
6.88
 20
0.6
 30
0.0
 11
6.36
 21
0.6
 31
0.0
  0
LINE
  8
0
 62
0
 10
6.88
 20
-0.06
 30
0.0
 11
6.87
 21
-0.06
 31
0.0
  0
ARC
  8
0
 62
0
 10
6.87
 20
-0.26
 30
0.0
 40
0.2
 50
90.0
 51
-110.487315115
  0
LINE
  8
0
 62
0
 10
6.8
 20
-0.447349939952
 30
0.0
 11
6.8
 21
-2.805
 31
0.0
  0
ARC
  8
0
 62
0
 10
6.7
 20
-2.805
 30
0.0
 40
0.1
 50
-90.0
 51
0.0
  0
LINE
  8
0
 62
0
 10
6.7
 20
-2.905
 30
0.0
 11
6.2
 21
-2.905
 31
0.0
  0
ARC
  8
0
 62
0
 10
6.2
 20
-3.005
 30
0.0
 40
0.1
 50
90.0
 51
180.0
  0
LINE
  8
0
 62
0
 10
6.1
 20
-3.005
 30
0.0
 11
6.1
 21
-3.535
 31
0.0
  0
ARC
  8
0
 62
0
 10
6.0
 20
-3.535
 30
0.0
 40
0.1
 50
-90.0
 51
0.0
  0
LINE
  8
0
 62
0
 10
6.0
 20
-3.635
 30
0.0
 11
5.31
 21
-3.635
 31
0.0
  0
ARC
  8
0
 62
0
 10
5.31
 20
-4.135
 30
0.0
 40
0.5
 50
90.0
 51
-180.0
  0
LINE
  8
0
 62
0
 10
4.81
 20
-4.135
 30
0.0
 11
4.81
 21
-4.325
 31
0.0
  0
ARC
  8
0
 62
0
 10
5.31
 20
-4.325
 30
0.0
 40
0.5
 50
180.0
 51
-90.0
  0
LINE
  8
0
 62
0
 10
5.31
 20
-4.825
 30
0.0
 11
5.92
 21
-4.825
 31
0.0
  0
LINE
  8
0
 62
0
 10
5.92
 20
-4.825
 30
0.0
 11
6.22
 21
-4.525
 31
0.0
  0
LINE
  8
0
 62
0
 10
6.22
 20
-4.525
 30
0.0
 11
6.42
 21
-4.525
 31
0.0
  0
ARC
  8
0
 62
0
 10
6.42
 20
-4.725
 30
0.0
 40
0.2
 50
0.0
 51
90.0
  0
LINE
  8
0
 62
0
 10
6.62
 20
-4.725
 30
0.0
 11
6.62
 21
-5.12
 31
0.0
  0
ARC
  8
0
 62
0
 10
6.72
 20
-5.12
 30
0.0
 40
0.1
 50
-180.0
 51
-90.0
  0
LINE
  8
0
 62
0
 10
6.88
 20
-5.22
 30
0.0
 11
6.72
 21
-5.22
 31
0.0
  0
LINE
  8
0
 62
0
 10
6.88
 20
-5.55
 30
0.0
 11
6.36
 21
-5.55
 31
0.0
  0
LINE
  8
0
 62
0
 10
6.36
 20
-6.55
 30
0.0
 11
6.36
 21
-5.55
 31
0.0
  0
LINE
  8
0
 62
0
 10
6.88
 20
-6.55
 30
0.0
 11
6.36
 21
-6.55
 31
0.0
  0
LINE
  8
0
 62
0
 10
6.88
 20
-7.0
 30
0.0
 11
6.87
 21
-7.0
 31
0.0
  0
LINE
  8
0
 62
0
 10
6.87
 20
-7.45
 30
0.0
 11
6.87
 21
-7.0
 31
0.0
  0
LINE
  8
0
 62
0
 10
5.82
 20
-7.45
 30
0.0
 11
6.87
 21
-7.45
 31
0.0
  0
LINE
  8
0
 62
0
 10
5.82
 20
-7.45
 30
0.0
 11
5.82
 21
-6.8
 31
0.0
  0
ARC
  8
0
 62
0
 10
5.65
 20
-6.8
 30
0.0
 40
0.17
 50
-0.0
 51
-180.0
  0
LINE
  8
0
 62
0
 10
5.48
 20
-6.8
 30
0.0
 11
5.48
 21
-6.93
 31
0.0
  0
LINE
  8
0
 62
0
 10
4.48
 20
-6.93
 30
0.0
 11
4.48
 21
-6.63
 31
0.0
  0
LINE
  8
0
 62
0
 10
4.48
 20
-6.63
 30
0.0
 11
3.94
 21
-6.63
 31
0.0
  0
LINE
  8
0
 62
0
 10
3.94
 20
-6.63
 30
0.0
 11
3.94
 21
-6.32
 31
0.0
  0
LINE
  8
0
 62
0
 10
3.94
 20
-6.32
 30
0.0
 11
0.04
 21
-6.32
 31
0.0
  0
LINE
  8
0
 62
0
 10
0.04
 20
-6.32
 30
0.0
 11
0.04
 21
-6.27
 31
0.0
  0
ARC
  8
0
 62
0
 10
-0.13
 20
-6.27
 30
0.0
 40
0.17
 50
-0.0
 51
-180.0
  0
LINE
  8
0
 62
0
 10
-0.3
 20
-6.27
 30
0.0
 11
-0.3
 21
-6.32
 31
0.0
  0
LINE
  8
0
 62
0
 10
-0.3
 20
-6.32
 30
0.0
 11
-1.5
 21
-6.32
 31
0.0
  0
LINE
  8
0
 62
0
 10
-1.5
 20
-6.32
 30
0.0
 11
-1.5
 21
-6.27
 31
0.0
  0
ARC
  8
0
 62
0
 10
-1.67
 20
-6.27
 30
0.0
 40
0.17
 50
-0.0
 51
-180.0
  0
LINE
  8
0
 62
0
 10
-1.84
 20
-6.27
 30
0.0
 11
-1.84
 21
-6.53
 31
0.0
  0
ARC
  8
0
 62
0
 10
-1.94
 20
-6.53
 30
0.0
 40
0.1
 50
-90.0
 51
-0.0
  0
LINE
  8
0
 62
0
 10
-1.94
 20
-6.63
 30
0.0
 11
-2.3
 21
-6.63
 31
0.0
  0
LINE
  8
0
 62
0
 10
-2.3
 20
-6.63
 30
0.0
 11
-2.3
 21
-6.93
 31
0.0
  0
LINE
  8
0
 62
0
 10
-3.3
 20
-6.93
 30
0.0
 11
-3.3
 21
-6.8
 31
0.0
  0
ARC
  8
0
 62
0
 10
-3.47
 20
-6.8
 30
0.0
 40
0.17
 50
-0.0
 51
-180.0
  0
LINE
  8
0
 62
0
 10
-3.64
 20
-7.45
 30
0.0
 11
-3.64
 21
-6.8
 31
0.0
  0
LINE
  8
0
 62
0
 10
-6.77
 20
-7.45
 30
0.0
 11
-3.64
 21
-7.45
 31
0.0
  0
LINE
  8
0
 62
0
 10
-6.77
 20
-7.45
 30
0.0
 11
-6.77
 21
-7.32
 31
0.0
  0
ARC
  8
0
 62
0
 10
-6.87
 20
-7.32
 30
0.0
 40
0.1
 50
-0.0
 51
90.0
  0
LINE
  8
0
 62
0
 10
-6.88
 20
-7.22
 30
0.0
 11
-6.87
 21
-7.22
 31
0.0
  0
LINE
  8
0
 62
0
 10
-6.88
 20
-1.59
 30
0.0
 11
-6.3
 21
-1.59
 31
0.0
  0
LINE
  8
0
 62
0
 10
-6.3
 20
-1.44
 30
0.0
 11
-6.3
 21
-1.59
 31
0.0
  0
LINE
  8
0
 62
0
 10
-6.3
 20
-1.44
 30
0.0
 11
-5.23
 21
-1.44
 31
0.0
  0
ARC
  8
0
 62
0
 10
-5.23
 20
-1.24
 30
0.0
 40
0.2
 50
-90.0
 51
-0.0
  0
LINE
  8
0
 62
0
 10
-5.03
 20
-1.24
 30
0.0
 11
-5.03
 21
0.27
 31
0.0
  0
ARC
  8
0
 62
0
 10
-5.23
 20
0.27
 30
0.0
 40
0.2
 50
0.0
 51
90.0
  0
LINE
  8
0
 62
0
 10
-5.23
 20
0.47
 30
0.0
 11
-5.52
 21
0.47
 31
0.0
  0
ARC
  8
0
 62
0
 10
-5.52
 20
0.67
 30
0.0
 40
0.2
 50
-180.0
 51
-90.0
  0
LINE
  8
0
 62
0
 10
-5.72
 20
0.67
 30
0.0
 11
-5.72
 21
3.49
 31
0.0
  0
LINE
  8
0
 62
0
 10
-6.02
 20
3.49
 30
0.0
 11
-5.72
 21
3.49
 31
0.0
  0
LINE
  8
0
 62
0
 10
-6.02
 20
0.24
 30
0.0
 11
-6.02
 21
3.49
 31
0.0
  0
ARC
  8
0
 62
0
 10
-5.87
 20
0.24
 30
0.0
 40
0.15
 50
-180.0
 51
-90.0
  0
LINE
  8
0
 62
0
 10
-5.72380407529
 20
0.09
 30
0.0
 11
-5.87
 21
0.09
 31
0.0
  0
ARC
  8
0
 62
0
 10
-5.72380407529
 20
-0.06
 30
0.0
 40
0.15
 50
10.9301613803
 51
90.0
  0
LINE
  8
0
 62
0
 10
-5.40272114492
 20
-0.931558149758
 30
0.0
 11
-5.57652522021
 21
-0.0315581497579
 31
0.0
  0
ARC
  8
0
 62
0
 10
-5.55
 20
-0.96
 30
0.0
 40
0.15
 50
-90.0
 51
10.9301613803
  0
LINE
  8
0
 62
0
 10
-6.45
 20
-1.11
 30
0.0
 11
-5.55
 21
-1.11
 31
0.0
  0
ARC
  8
0
 62
0
 10
-6.45
 20
-0.96
 30
0.0
 40
0.15
 50
-180.0
 51
-90.0
  0
LINE
  8
0
 62
0
 10
-6.6
 20
3.49
 30
0.0
 11
-6.6
 21
-0.96
 31
0.0
  0
LINE
  8
0
 62
0
 10
-6.88
 20
3.49
 30
0.0
 11
-6.6
 21
3.49
 31
0.0
  0
LINE
  8
0
 62
0
 10
-6.88
 20
7.0
 30
0.0
 11
-6.56
 21
7.0
 31
0.0
  0
LINE
  8
0
 62
0
 10
-6.56
 20
7.26
 30
0.0
 11
-6.56
 21
7.0
 31
0.0
  0
LINE
  8
0
 62
0
 10
2.15
 20
-1.42
 30
0.0
 11
2.15
 21
-3.06
 31
0.0
  0
LINE
  8
0
 62
0
 10
2.15
 20
-3.06
 30
0.0
 11
3.05
 21
-3.06
 31
0.0
  0
LINE
  8
0
 62
0
 10
3.05
 20
-3.06
 30
0.0
 11
3.05
 21
-1.42
 31
0.0
  0
LINE
  8
0
 62
0
 10
3.05
 20
-1.42
 30
0.0
 11
2.15
 21
-1.42
 31
0.0
  0
ARC
  8
0
 62
0
 10
-4.2
 20
-0.75
 30
0.0
 40
0.2
 50
90.0
 51
-180.0
  0
LINE
  8
0
 62
0
 10
-4.4
 20
-0.75
 30
0.0
 11
-4.4
 21
-1.01
 31
0.0
  0
LINE
  8
0
 62
0
 10
-4.4
 20
-1.01
 30
0.0
 11
-4.11
 21
-1.01
 31
0.0
  0
LINE
  8
0
 62
0
 10
-4.11
 20
-1.01
 30
0.0
 11
-4.11
 21
-5.38
 31
0.0
  0
LINE
  8
0
 62
0
 10
-4.11
 20
-5.38
 30
0.0
 11
-4.4
 21
-5.38
 31
0.0
  0
LINE
  8
0
 62
0
 10
-4.4
 20
-5.38
 30
0.0
 11
-4.4
 21
-5.63
 31
0.0
  0
ARC
  8
0
 62
0
 10
-4.2
 20
-5.63
 30
0.0
 40
0.2
 50
180.0
 51
-90.0
  0
LINE
  8
0
 62
0
 10
-4.2
 20
-5.83
 30
0.0
 11
-3.3
 21
-5.83
 31
0.0
  0
ARC
  8
0
 62
0
 10
-3.3
 20
-5.63
 30
0.0
 40
0.2
 50
-90.0
 51
0.0
  0
LINE
  8
0
 62
0
 10
-3.1
 20
-5.63
 30
0.0
 11
-3.1
 21
-0.75
 31
0.0
  0
ARC
  8
0
 62
0
 10
-3.3
 20
-0.75
 30
0.0
 40
0.2
 50
0.0
 51
90.0
  0
LINE
  8
0
 62
0
 10
-3.3
 20
-0.55
 30
0.0
 11
-4.2
 21
-0.55
 31
0.0
  0
LINE
  8
0
 62
0
 10
-0.05
 20
-3.06
 30
0.0
 11
0.85
 21
-3.06
 31
0.0
  0
LINE
  8
0
 62
0
 10
0.85
 20
-3.06
 30
0.0
 11
0.85
 21
-1.42
 31
0.0
  0
LINE
  8
0
 62
0
 10
0.85
 20
-1.42
 30
0.0
 11
-0.05
 21
-1.42
 31
0.0
  0
LINE
  8
0
 62
0
 10
-6.56
 20
7.45
 30
0.0
 11
-5.29
 21
7.45
 31
0.0
  0
LINE
  8
0
 62
0
 10
-6.56
 20
7.44
 30
0.0
 11
-6.56
 21
7.45
 31
0.0
  0
LINE
  8
0
 62
0
 10
-6.56
 20
7.26
 30
0.0
 11
-6.56
 21
7.43663521733
 31
0.0
  0
LINE
  8
0
 62
0
 10
-5.29
 20
7.45
 30
0.0
 11
-5.29
 21
7.26
 31
0.0
  0
LINE
  8
0
 62
0
 10
-6.95
 20
7.45
 30
0.0
 11
-7.07
 21
7.45
 31
0.0
  0
LINE
  8
0
 62
0
 10
-7.07
 20
7.35
 30
0.0
 11
-7.07
 21
7.45
 31
0.0
  0
LINE
  8
0
 62
0
 10
-6.95
 20
7.35
 30
0.0
 11
-6.95
 21
7.45
 31
0.0
  0
LINE
  8
0
 62
0
 10
-6.95
 20
7.1
 30
0.0
 11
-6.95
 21
7.0
 31
0.0
  0
LINE
  8
0
 62
0
 10
-6.95
 20
7.35
 30
0.0
 11
-6.95
 21
7.1
 31
0.0
  0
LINE
  8
0
 62
0
 10
-6.95
 20
-1.51
 30
0.0
 11
-6.95
 21
-1.59
 31
0.0
  0
LINE
  8
0
 62
0
 10
-6.95
 20
-1.29
 30
0.0
 11
-6.95
 21
-1.51
 31
0.0
  0
LINE
  8
0
 62
0
 10
-6.95
 20
-1.21
 30
0.0
 11
-6.95
 21
-1.29
 31
0.0
  0
LINE
  8
0
 62
0
 10
-6.95
 20
-1.21
 30
0.0
 11
-6.95
 21
-1.18
 31
0.0
  0
LINE
  8
0
 62
0
 10
-6.95
 20
-1.18
 30
0.0
 11
-6.95
 21
3.15838483801
 31
0.0
  0
LINE
  8
0
 62
0
 10
-6.95
 20
3.15838483801
 30
0.0
 11
-6.95
 21
3.19
 31
0.0
  0
LINE
  8
0
 62
0
 10
-6.95
 20
3.49
 30
0.0
 11
-6.95
 21
3.19
 31
0.0
  0
LINE
  8
0
 62
0
 10
-6.95
 20
1.48
 30
0.0
 11
-6.95
 21
1.55
 31
0.0
  0
LINE
  8
0
 62
0
 10
-6.95
 20
0.55
 30
0.0
 11
-6.95
 21
0.62
 31
0.0
  0
LINE
  8
0
 62
0
 10
-6.95
 20
1.48
 30
0.0
 11
-6.95
 21
0.62
 31
0.0
  0
LINE
  8
0
 62
0
 10
-7.07
 20
3.49
 30
0.0
 11
-6.88
 21
3.49
 31
0.0
  0
ARC
  8
0
 62
0
 10
-3.47
 20
-6.8
 30
0.0
 40
0.17
 50
-0.0
 51
-180.0
  0
LINE
  8
0
 62
0
 10
-3.3
 20
-6.93
 30
0.0
 11
-3.44
 21
-6.93
 31
0.0
  0
LINE
  8
0
 62
0
 10
-3.44
 20
-6.93
 30
0.0
 11
-3.44
 21
-7.5
 31
0.0
  0
LINE
  8
0
 62
0
 10
-3.44
 20
-7.5
 30
0.0
 11
-6.91
 21
-7.5
 31
0.0
  0
LINE
  8
0
 62
0
 10
-6.91
 20
-7.5
 30
0.0
 11
-6.91
 21
-7.22
 31
0.0
  0
ARC
  8
0
 62
0
 10
-6.87
 20
-7.32
 30
0.0
 40
0.1
 50
-0.0
 51
90.0
  0
LINE
  8
0
 62
0
 10
6.91
 20
-7.0
 30
0.0
 11
6.91
 21
-7.5
 31
0.0
  0
LINE
  8
0
 62
0
 10
6.91
 20
-7.5
 30
0.0
 11
5.73
 21
-7.5
 31
0.0
  0
LINE
  8
0
 62
0
 10
5.73
 20
-7.5
 30
0.0
 11
5.73
 21
-6.93
 31
0.0
  0
LINE
  8
0
 62
0
 10
5.73
 20
-6.93
 30
0.0
 11
5.48
 21
-6.93
 31
0.0
  0
LINE
  8
0
 62
0
 10
6.91
 20
-5.55
 30
0.0
 11
6.91
 21
-6.55
 31
0.0
  0
LINE
  8
0
 62
0
 10
6.91
 20
1.6
 30
0.0
 11
6.91
 21
0.6
 31
0.0
  0
LINE
  8
0
 62
0
 10
6.05
 20
7.44
 30
0.0
 11
6.91
 21
7.44
 31
0.0
  0
LINE
  8
0
 62
0
 10
6.91
 20
7.44
 30
0.0
 11
6.91
 21
6.34
 31
0.0
  0
LINE
  8
0
 62
0
 10
6.91
 20
6.34
 30
0.0
 11
6.33
 21
6.34
 31
0.0
  0
ARC
  8
0
 62
0
 10
6.33
 20
6.54
 30
0.0
 40
0.2
 50
90.0
 51
-90.0
  0
LINE
  8
0
 62
0
 10
6.33
 20
6.74
 30
0.0
 11
6.43
 21
6.74
 31
0.0
  0
LINE
  8
0
 62
0
 10
6.43
 20
6.74
 30
0.0
 11
6.43
 21
7.05
 31
0.0
  0
LINE
  8
0
 62
0
 10
6.43
 20
7.05
 30
0.0
 11
6.33
 21
7.15
 31
0.0
  0
LINE
  8
0
 62
0
 10
6.33
 20
7.15
 30
0.0
 11
5.95
 21
7.15
 31
0.0
  0
LINE
  8
0
 62
0
 10
5.95
 20
7.34
 30
0.0
 11
5.95
 21
7.15
 31
0.0
  0
LINE
  8
0
 62
0
 10
6.05
 20
7.44
 30
0.0
 11
5.95
 21
7.34
 31
0.0
  0
LINE
  8
0
 62
0
 10
-1.95
 20
-6.63
 30
0.0
 11
-1.95
 21
-6.7
 31
0.0
  0
LINE
  8
0
 62
0
 10
-1.95
 20
-6.7
 30
0.0
 11
0.0
 21
-6.7
 31
0.0
  0
LINE
  8
0
 62
0
 10
0.0
 20
-6.7
 30
0.0
 11
0.0
 21
-6.53304954429
 31
0.0
  0
LINE
  8
0
 62
0
 10
0.0
 20
-6.53304954429
 30
0.0
 11
1.9
 21
-6.53304954429
 31
0.0
  0
LINE
  8
0
 62
0
 10
1.9
 20
-6.53304954429
 30
0.0
 11
1.9
 21
-6.43
 31
0.0
  0
LINE
  8
0
 62
0
 10
1.9
 20
-6.43
 30
0.0
 11
3.94
 21
-6.43
 31
0.0
  0
LINE
  8
0
 62
0
 10
4.48
 20
-6.93
 30
0.0
 11
-2.3
 21
-6.93
 31
0.0
  0
ARC
  8
0
 62
0
 10
-5.52
 20
0.67
 30
0.0
 40
0.2
 50
-180.0
 51
-90.0
  0
LINE
  8
0
 62
0
 10
-5.26
 20
0.47
 30
0.0
 11
-5.26
 21
-1.44
 31
0.0
  0
LINE
  8
0
 62
0
 10
-6.91
 20
-1.59
 30
0.0
 11
-6.91
 21
3.49
 31
0.0
  0
LINE
  8
0
 62
0
 10
-5.26
 20
7.34
 30
0.0
 11
-5.29
 21
7.37
 31
0.0
  0
LINE
  8
0
 62
0
 10
-5.26
 20
7.34
 30
0.0
 11
-5.26
 21
7.12
 31
0.0
  0
LINE
  8
0
 62
0
 10
-4.81
 20
7.12
 30
0.0
 11
-5.26
 21
7.12
 31
0.0
  0
LINE
  8
0
 62
0
 10
-5.16
 20
6.77
 30
0.0
 11
-4.81
 21
7.12
 31
0.0
  0
LINE
  8
0
 62
0
 10
-5.16
 20
6.74476086956
 30
0.0
 11
-5.16
 21
6.77
 31
0.0
  0
LINE
  8
0
 62
0
 10
5.96
 20
-4.785
 30
0.0
 11
5.96
 21
-3.635
 31
0.0
  0
LINE
  8
0
 62
0
 10
5.85
 20
-4.825
 30
0.0
 11
5.85
 21
-4.53
 31
0.0
  0
LINE
  8
0
 62
0
 10
5.52217475214
 20
-4.66575937118
 30
0.0
 11
5.85
 21
-4.53
 31
0.0
  0
ARC
  8
0
 62
0
 10
5.35
 20
-4.25
 30
0.0
 40
0.45
 50
112.495480803
 51
-67.5045191966
  0
LINE
  8
0
 62
0
 10
5.63739158405
 20
-3.64392448562
 30
0.0
 11
5.17782524786
 21
-3.83424062882
 31
0.0
  0
ARC
  8
0
 62
0
 10
5.58
 20
-3.50533802855
 30
0.0
 40
0.15
 50
-67.5045191966
 51
-59.8157612633
  0
ARC
  8
0
 62
0
 10
5.58
 20
-3.50533802855
 30
0.0
 40
0.27
 50
-67.5045191966
 51
-28.700393651
  0
LINE
  8
0
 62
0
 10
5.2237385151
 20
-3.94510979447
 30
0.0
 11
5.68330485128
 21
-3.75479365126
 31
0.0
  0
ARC
  8
0
 62
0
 10
5.35
 20
-4.25
 30
0.0
 40
0.33
 50
-67.5045191966
 51
112.495480803
  0
LINE
  8
0
 62
0
 10
5.85
 20
-4.40011717897
 30
0.0
 11
5.4762614849
 21
-4.55489020553
 31
0.0
  0
LINE
  8
0
 62
0
 10
5.85
 20
-4.40011717897
 30
0.0
 11
5.85
 21
-3.635
 31
0.0
  0
LINE
  8
0
 62
0
 10
6.91
 20
-5.07
 30
0.0
 11
6.62
 21
-5.07
 31
0.0
  0
LINE
  8
0
 62
0
 10
6.91
 20
-5.07
 30
0.0
 11
6.91
 21
-5.22
 31
0.0
  0
LINE
  8
0
 62
0
 10
6.91
 20
-0.21
 30
0.0
 11
6.67635083269
 21
-0.21
 31
0.0
  0
LINE
  8
0
 62
0
 10
6.91
 20
-0.06
 30
0.0
 11
6.91
 21
-0.21
 31
0.0
  0
LINE
  8
0
 62
0
 10
-6.56
 20
7.43663521733
 30
0.0
 11
-6.56
 21
7.44
 31
0.0
  0
LINE
  8
0
 62
0
 10
-6.91
 20
7.0
 30
0.0
 11
-6.91
 21
7.44
 31
0.0
  0
LINE
  8
0
 62
0
 10
-6.91
 20
7.44
 30
0.0
 11
-6.56
 21
7.44
 31
0.0
  0
LINE
  8
0
 62
0
 10
-7.14
 20
-7.22
 30
0.0
 11
-7.27
 21
-7.22
 31
0.0
  0
LINE
  8
0
 62
0
 10
-7.07
 20
-7.22
 30
0.0
 11
-7.14
 21
-7.22
 31
0.0
  0
LINE
  8
0
 62
0
 10
-7.07
 20
-7.22
 30
0.0
 11
-6.88
 21
-7.22
 31
0.0
  0
LINE
  8
0
 62
0
 10
-7.07
 20
-7.22
 30
0.0
 11
-6.95
 21
-7.22
 31
0.0
  0
ARC
  8
0
 62
0
 10
-7.27
 20
-7.02
 30
0.0
 40
0.2
 50
-180.0
 51
-90.0
  0
LINE
  8
0
 62
0
 10
-7.07
 20
-5.52
 30
0.0
 11
-6.95
 21
-5.52
 31
0.0
  0
LINE
  8
0
 62
0
 10
-7.07
 20
-5.52
 30
0.0
 11
-7.14
 21
-5.52
 31
0.0
  0
LINE
  8
0
 62
0
 10
-7.14
 20
-5.52
 30
0.0
 11
-7.27
 21
-5.52
 31
0.0
  0
ARC
  8
0
 62
0
 10
-7.27
 20
-5.72
 30
0.0
 40
0.2
 50
90.0
 51
-180.0
  0
LINE
  8
0
 62
0
 10
-7.47
 20
-7.02
 30
0.0
 11
-7.47
 21
-5.72
 31
0.0
  0
LINE
  8
0
 62
0
 10
-7.07
 20
3.49
 30
0.0
 11
-7.07
 21
3.19
 31
0.0
  0
LINE
  8
0
 62
0
 10
-7.07
 20
3.15838483801
 30
0.0
 11
-7.07
 21
3.19
 31
0.0
  0
LINE
  8
0
 62
0
 10
-7.07
 20
-1.18
 30
0.0
 11
-7.07
 21
3.15838483801
 31
0.0
  0
LINE
  8
0
 62
0
 10
-7.07
 20
-1.21
 30
0.0
 11
-7.07
 21
-1.18
 31
0.0
  0
LINE
  8
0
 62
0
 10
-7.07
 20
-1.21
 30
0.0
 11
-7.07
 21
-1.29
 31
0.0
  0
LINE
  8
0
 62
0
 10
-7.07
 20
-1.29
 30
0.0
 11
-7.07
 21
-1.51
 31
0.0
  0
LINE
  8
0
 62
0
 10
-7.07
 20
-1.51
 30
0.0
 11
-7.07
 21
-1.59
 31
0.0
  0
LINE
  8
0
 62
0
 10
-7.07
 20
-7.22
 30
0.0
 11
-7.07
 21
-1.59
 31
0.0
  0
LINE
  8
0
 62
0
 10
-7.07
 20
7.35
 30
0.0
 11
-7.07
 21
7.1
 31
0.0
  0
LINE
  8
0
 62
0
 10
-7.07
 20
7.1
 30
0.0
 11
-7.07
 21
7.0
 31
0.0
  0
LINE
  8
0
 62
0
 10
-7.07
 20
3.49
 30
0.0
 11
-7.07
 21
7.0
 31
0.0
  0
LINE
  8
0
 62
0
 10
-7.07
 20
3.19
 30
0.0
 11
-6.95
 21
3.19
 31
0.0
  0
LINE
  8
0
 62
0
 10
-7.07
 20
-1.21
 30
0.0
 11
-6.95
 21
-1.21
 31
0.0
  0
LINE
  8
0
 62
0
 10
-7.07
 20
-1.59
 30
0.0
 11
-6.88
 21
-1.59
 31
0.0
  0
LINE
  8
0
 62
0
 10
-7.07
 20
7.0
 30
0.0
 11
-6.88
 21
7.0
 31
0.0
  0
LINE
  8
0
 62
0
 10
-5.26
 20
7.44
 30
0.0
 11
-3.83
 21
7.44
 31
0.0
  0
LINE
  8
0
 62
0
 10
-5.26
 20
7.44
 30
0.0
 11
-5.29
 21
7.44
 31
0.0
  0
LINE
  8
0
 62
0
 10
-3.80333333333
 20
7.34
 30
0.0
 11
-3.83
 21
7.44
 31
0.0
  0
LINE
  8
0
 62
0
 10
-5.26
 20
7.34
 30
0.0
 11
-5.26
 21
7.44
 31
0.0
  0
LINE
  8
0
 62
0
 10
-5.16
 20
6.77
 30
0.0
 11
-4.81
 21
7.12
 31
0.0
  0
LINE
  8
0
 62
0
 10
6.91
 20
-5.07
 30
0.0
 11
6.91
 21
-0.21
 31
0.0
  0
LINE
  8
0
 62
0
 10
6.95
 20
5.98
 30
0.0
 11
6.95
 21
5.95
 31
0.0
  0
LINE
  8
0
 62
0
 10
6.95
 20
1.45
 30
0.0
 11
6.95
 21
1.6
 31
0.0
  0
LINE
  8
0
 62
0
 10
6.95
 20
0.75
 30
0.0
 11
6.95
 21
1.45
 31
0.0
  0
LINE
  8
0
 62
0
 10
6.95
 20
0.6
 30
0.0
 11
6.95
 21
0.75
 31
0.0
  0
LINE
  8
0
 62
0
 10
6.95
 20
-5.7
 30
0.0
 11
6.95
 21
-5.55
 31
0.0
  0
LINE
  8
0
 62
0
 10
6.95
 20
-6.4
 30
0.0
 11
6.95
 21
-5.7
 31
0.0
  0
LINE
  8
0
 62
0
 10
6.95
 20
-6.55
 30
0.0
 11
6.95
 21
-6.4
 31
0.0
  0
LINE
  8
0
 62
0
 10
6.95
 20
-7.15
 30
0.0
 11
6.95
 21
-7.0
 31
0.0
  0
LINE
  8
0
 62
0
 10
6.95
 20
-7.3
 30
0.0
 11
6.95
 21
-7.15
 31
0.0
  0
LINE
  8
0
 62
0
 10
7.07
 20
-6.55
 30
0.0
 11
7.07
 21
-6.4
 31
0.0
  0
LINE
  8
0
 62
0
 10
7.07
 20
-6.4
 30
0.0
 11
7.07
 21
-5.7
 31
0.0
  0
LINE
  8
0
 62
0
 10
7.07
 20
-5.7
 30
0.0
 11
7.07
 21
-5.55
 31
0.0
  0
LINE
  8
0
 62
0
 10
7.07
 20
-5.55
 30
0.0
 11
7.07
 21
-5.22
 31
0.0
  0
LINE
  8
0
 62
0
 10
7.07
 20
-7.3
 30
0.0
 11
7.07
 21
-7.15
 31
0.0
  0
LINE
  8
0
 62
0
 10
7.07
 20
-7.15
 30
0.0
 11
7.07
 21
-7.0
 31
0.0
  0
LINE
  8
0
 62
0
 10
7.07
 20
-7.0
 30
0.0
 11
7.07
 21
-6.55
 31
0.0
  0
LINE
  8
0
 62
0
 10
7.07
 20
5.95
 30
0.0
 11
7.07
 21
5.98
 31
0.0
  0
LINE
  8
0
 62
0
 10
7.07
 20
-0.06
 30
0.0
 11
7.07
 21
0.6
 31
0.0
  0
LINE
  8
0
 62
0
 10
7.07
 20
0.6
 30
0.0
 11
7.07
 21
0.75
 31
0.0
  0
LINE
  8
0
 62
0
 10
7.07
 20
0.75
 30
0.0
 11
7.07
 21
1.45
 31
0.0
  0
LINE
  8
0
 62
0
 10
7.07
 20
1.45
 30
0.0
 11
7.07
 21
1.6
 31
0.0
  0
LINE
  8
0
 62
0
 10
7.07
 20
1.6
 30
0.0
 11
7.07
 21
5.95
 31
0.0
  0
LINE
  8
0
 62
0
 10
6.88
 20
-6.55
 30
0.0
 11
7.07
 21
-6.55
 31
0.0
  0
LINE
  8
0
 62
0
 10
6.88
 20
-7.0
 30
0.0
 11
7.07
 21
-7.0
 31
0.0
  0
LINE
  8
0
 62
0
 10
6.88
 20
-5.22
 30
0.0
 11
7.07
 21
-5.22
 31
0.0
  0
LINE
  8
0
 62
0
 10
6.88
 20
-5.55
 30
0.0
 11
7.07
 21
-5.55
 31
0.0
  0
LINE
  8
0
 62
0
 10
6.88
 20
-0.06
 30
0.0
 11
7.07
 21
-0.06
 31
0.0
  0
LINE
  8
0
 62
0
 10
6.88
 20
0.6
 30
0.0
 11
7.07
 21
0.6
 31
0.0
  0
LINE
  8
0
 62
0
 10
6.88
 20
5.95
 30
0.0
 11
7.07
 21
5.95
 31
0.0
  0
LINE
  8
0
 62
0
 10
6.88
 20
1.6
 30
0.0
 11
7.07
 21
1.6
 31
0.0
  0
LINE
  8
0
 62
0
 10
6.91
 20
-6.41
 30
0.0
 11
6.95
 21
-6.41
 31
0.0
  0
LINE
  8
0
 62
0
 10
6.91
 20
-5.71
 30
0.0
 11
6.95
 21
-5.71
 31
0.0
  0
LINE
  8
0
 62
0
 10
7.07
 20
-7.3
 30
0.0
 11
6.95
 21
-7.3
 31
0.0
  0
LINE
  8
0
 62
0
 10
6.76
 20
-3.17
 30
0.0
 11
6.76
 21
-2.885
 31
0.0
  0
LINE
  8
0
 62
0
 10
6.76
 20
-0.427032930885
 30
0.0
 11
6.76
 21
-0.21
 31
0.0
  0
ARC
  8
0
 62
0
 10
6.56
 20
-3.17
 30
0.0
 40
0.2
 50
-59.1727325089
 51
0.0
  0
LINE
  8
0
 62
0
 10
6.18437742038
 20
-3.62706419427
 30
0.0
 11
6.66249031847
 21
-3.34174322293
 31
0.0
  0
ARC
  8
0
 62
0
 10
6.21
 20
-3.67
 30
0.0
 40
0.05
 50
120.827267491
 51
180.0
  0
LINE
  8
0
 62
0
 10
6.16
 20
-4.585
 30
0.0
 11
6.16
 21
-3.67
 31
0.0
  0
LINE
  8
0
 62
0
 10
6.01
 20
-3.67
 30
0.0
 11
6.01
 21
-4.735
 31
0.0
  0
ARC
  8
0
 62
0
 10
6.21
 20
-3.67
 30
0.0
 40
0.200000000003
 50
120.827267491
 51
123.367012969
  0
ARC
  8
0
 62
0
 10
6.21
 20
-3.67
 30
0.0
 40
0.2
 50
169.664888435
 51
-180.0
  0
LINE
  8
0
 62
0
 10
6.58562257962
 20
-3.21293580573
 30
0.0
 11
6.10750968153
 21
-3.49825677707
 31
0.0
  0
ARC
  8
0
 62
0
 10
6.56
 20
-3.17
 30
0.0
 40
0.05
 50
-59.1727325089
 51
-0.0
  0
LINE
  8
0
 62
0
 10
6.61
 20
-2.905
 30
0.0
 11
6.61
 21
-3.17
 31
0.0
  0
LINE
  8
0
 62
0
 10
6.91
 20
-5.07
 30
0.0
 11
7.11
 21
-5.07
 31
0.0
  0
LINE
  8
0
 62
0
 10
7.11
 20
-5.07
 30
0.0
 11
7.11
 21
-5.685
 31
0.0
  0
LINE
  8
0
 62
0
 10
7.11
 20
-5.685
 30
0.0
 11
7.07
 21
-5.685
 31
0.0
  0
LINE
  8
0
 62
0
 10
6.95
 20
-5.685
 30
0.0
 11
6.91
 21
-5.685
 31
0.0
  0
LINE
  8
0
 62
0
 10
6.91
 20
-6.435
 30
0.0
 11
6.95
 21
-6.435
 31
0.0
  0
LINE
  8
0
 62
0
 10
7.07
 20
-6.435
 30
0.0
 11
7.11
 21
-6.435
 31
0.0
  0
LINE
  8
0
 62
0
 10
7.11
 20
-6.435
 30
0.0
 11
7.11
 21
-7.5
 31
0.0
  0
LINE
  8
0
 62
0
 10
7.11
 20
-7.5
 30
0.0
 11
6.91
 21
-7.5
 31
0.0
  0
LINE
  8
0
 62
0
 10
-2.3
 20
-7.15
 30
0.0
 11
-2.3
 21
-7.3
 31
0.0
  0
LINE
  8
0
 62
0
 10
-2.3
 20
-7.1
 30
0.0
 11
-2.3
 21
-7.15
 31
0.0
  0
LINE
  8
0
 62
0
 10
-2.3
 20
-6.93
 30
0.0
 11
-2.3
 21
-7.1
 31
0.0
  0
ARC
  8
0
 62
0
 10
-2.5
 20
-7.3
 30
0.0
 40
0.2
 50
-90.0
 51
0.0
  0
LINE
  8
0
 62
0
 10
-3.3
 20
-6.93
 30
0.0
 11
-3.3
 21
-7.1
 31
0.0
  0
LINE
  8
0
 62
0
 10
-3.3
 20
-7.1
 30
0.0
 11
-3.3
 21
-7.15
 31
0.0
  0
LINE
  8
0
 62
0
 10
-3.3
 20
-7.15
 30
0.0
 11
-3.3
 21
-7.3
 31
0.0
  0
ARC
  8
0
 62
0
 10
-3.1
 20
-7.3
 30
0.0
 40
0.2
 50
180.0
 51
-90.0
  0
LINE
  8
0
 62
0
 10
-2.5
 20
-7.5
 30
0.0
 11
-3.1
 21
-7.5
 31
0.0
  0
LINE
  8
0
 62
0
 10
-2.3
 20
-7.1
 30
0.0
 11
-2.5
 21
-7.1
 31
0.0
  0
LINE
  8
0
 62
0
 10
-3.1
 20
-7.1
 30
0.0
 11
-3.3
 21
-7.1
 31
0.0
  0
LINE
  8
0
 62
0
 10
-2.3
 20
-7.1
 30
0.0
 11
-3.3
 21
-7.1
 31
0.0
  0
LINE
  8
0
 62
0
 10
-3.1
 20
-7.1
 30
0.0
 11
-2.5
 21
-7.1
 31
0.0
  0
LINE
  8
0
 62
0
 10
4.48
 20
-6.93
 30
0.0
 11
4.48
 21
-7.1
 31
0.0
  0
LINE
  8
0
 62
0
 10
4.48
 20
-7.1
 30
0.0
 11
4.48
 21
-7.15
 31
0.0
  0
LINE
  8
0
 62
0
 10
4.48
 20
-7.15
 30
0.0
 11
4.48
 21
-7.3
 31
0.0
  0
ARC
  8
0
 62
0
 10
4.68
 20
-7.3
 30
0.0
 40
0.2
 50
180.0
 51
-90.0
  0
ARC
  8
0
 62
0
 10
5.28
 20
-7.3
 30
0.0
 40
0.2
 50
-90.0
 51
0.0
  0
LINE
  8
0
 62
0
 10
4.68
 20
-7.5
 30
0.0
 11
5.28
 21
-7.5
 31
0.0
  0
LINE
  8
0
 62
0
 10
5.48
 20
-7.15
 30
0.0
 11
5.48
 21
-7.3
 31
0.0
  0
LINE
  8
0
 62
0
 10
5.48
 20
-7.1
 30
0.0
 11
5.48
 21
-7.15
 31
0.0
  0
LINE
  8
0
 62
0
 10
5.48
 20
-6.93
 30
0.0
 11
5.48
 21
-7.1
 31
0.0
  0
LINE
  8
0
 62
0
 10
4.48
 20
-7.1
 30
0.0
 11
4.68
 21
-7.1
 31
0.0
  0
LINE
  8
0
 62
0
 10
5.28
 20
-7.1
 30
0.0
 11
5.48
 21
-7.1
 31
0.0
  0
LINE
  8
0
 62
0
 10
4.48
 20
-7.1
 30
0.0
 11
5.48
 21
-7.1
 31
0.0
  0
LINE
  8
0
 62
0
 10
4.68
 20
-7.1
 30
0.0
 11
5.28
 21
-7.1
 31
0.0
  0
LINE
  8
0
 62
0
 10
1.9
 20
-6.53304954429
 30
0.0
 11
1.9
 21
-6.43
 31
0.0
  0
LINE
  8
0
 62
0
 10
0.0
 20
-6.7
 30
0.0
 11
0.0
 21
-6.53304954429
 31
0.0
  0
LINE
  8
0
 62
0
 10
7.14
 20
5.95
 30
0.0
 11
7.27
 21
5.95
 31
0.0
  0
LINE
  8
0
 62
0
 10
7.07
 20
5.95
 30
0.0
 11
7.14
 21
5.95
 31
0.0
  0
ARC
  8
0
 62
0
 10
6.9
 20
5.98
 30
0.0
 40
0.05
 50
-0.0
 51
90.0
  0
LINE
  8
0
 62
0
 10
6.31
 20
6.03
 30
0.0
 11
6.9
 21
6.03
 31
0.0
  0
ARC
  8
0
 62
0
 10
6.31
 20
6.53
 30
0.0
 40
0.5
 50
114.216783413
 51
-90.0
  0
LINE
  8
0
 62
0
 10
6.15412772408
 20
6.87656
 30
0.0
 11
6.10490490011
 21
6.986
 31
0.0
  0
ARC
  8
0
 62
0
 10
6.31
 20
6.53
 30
0.0
 40
0.38
 50
114.216783413
 51
-90.0
  0
LINE
  8
0
 62
0
 10
6.9
 20
6.15
 30
0.0
 11
6.31
 21
6.15
 31
0.0
  0
ARC
  8
0
 62
0
 10
6.9
 20
5.98
 30
0.0
 40
0.17
 50
-0.0
 51
90.0
  0
ARC
  8
0
 62
0
 10
7.27
 20
5.75
 30
0.0
 40
0.2
 50
0.0
 51
90.0
  0
LINE
  8
0
 62
0
 10
7.07
 20
4.25
 30
0.0
 11
7.14
 21
4.25
 31
0.0
  0
LINE
  8
0
 62
0
 10
7.14
 20
4.25
 30
0.0
 11
7.27
 21
4.25
 31
0.0
  0
ARC
  8
0
 62
0
 10
7.27
 20
4.45
 30
0.0
 40
0.2
 50
-90.0
 51
0.0
  0
LINE
  8
0
 62
0
 10
7.47
 20
5.75
 30
0.0
 11
7.47
 21
4.45
 31
0.0
  0
LINE
  8
0
 62
0
 10
5.33
 20
7.44
 30
0.0
 11
6.05
 21
7.44
 31
0.0
  0
LINE
  8
0
 62
0
 10
5.33
 20
7.44
 30
0.0
 11
5.43
 21
7.34
 31
0.0
  0
LINE
  8
0
 62
0
 10
5.33
 20
4.71
 30
0.0
 11
5.33
 21
7.44
 31
0.0
  0
LINE
  8
0
 62
0
 10
-7.07
 20
-5.32
 30
0.0
 11
-6.95
 21
-5.32
 31
0.0
  0
LINE
  8
0
 62
0
 10
-7.07
 20
6.15
 30
0.0
 11
-6.95
 21
6.15
 31
0.0
  0
LINE
  8
0
 62
0
 10
-7.07
 20
5.95
 30
0.0
 11
-6.95
 21
5.95
 31
0.0
  0
LINE
  8
0
 62
0
 10
-7.07
 20
5.95
 30
0.0
 11
-7.14
 21
5.95
 31
0.0
  0
LINE
  8
0
 62
0
 10
-7.14
 20
5.95
 30
0.0
 11
-7.27
 21
5.95
 31
0.0
  0
ARC
  8
0
 62
0
 10
-7.27
 20
5.75
 30
0.0
 40
0.2
 50
90.0
 51
180.0
  0
ARC
  8
0
 62
0
 10
-7.27
 20
4.15
 30
0.0
 40
0.2
 50
-180.0
 51
-90.0
  0
LINE
  8
0
 62
0
 10
-7.47
 20
4.15
 30
0.0
 11
-7.47
 21
5.75
 31
0.0
  0
LINE
  8
0
 62
0
 10
-7.14
 20
3.95
 30
0.0
 11
-7.27
 21
3.95
 31
0.0
  0
LINE
  8
0
 62
0
 10
-7.07
 20
3.95
 30
0.0
 11
-7.14
 21
3.95
 31
0.0
  0
LINE
  8
0
 62
0
 10
-7.07
 20
3.95
 30
0.0
 11
-6.95
 21
3.95
 31
0.0
  0
LINE
  8
0
 62
0
 10
-7.07
 20
3.95
 30
0.0
 11
-6.95
 21
3.95
 31
0.0
  0
LINE
  8
0
 62
0
 10
-7.07
 20
3.75
 30
0.0
 11
-6.95
 21
3.75
 31
0.0
  0
LINE
  8
0
 62
0
 10
-7.07
 20
3.75
 30
0.0
 11
-6.95
 21
3.75
 31
0.0
  0
LINE
  8
0
 62
0
 10
-7.07
 20
-1.93
 30
0.0
 11
-6.95
 21
-1.93
 31
0.0
  0
LINE
  8
0
 62
0
 10
-7.07
 20
-2.69
 30
0.0
 11
-6.95
 21
-2.69
 31
0.0
  0
LINE
  8
0
 62
0
 10
-7.07
 20
5.525
 30
0.0
 11
-6.95
 21
5.525
 31
0.0
  0
LINE
  8
0
 62
0
 10
-7.07
 20
4.375
 30
0.0
 11
-6.95
 21
4.375
 31
0.0
  0
LINE
  8
0
 62
0
 10
-7.07
 20
6.925
 30
0.0
 11
-6.95
 21
6.925
 31
0.0
  0
LINE
  8
0
 62
0
 10
-7.07
 20
6.925
 30
0.0
 11
-6.95
 21
6.925
 31
0.0
  0
LINE
  8
0
 62
0
 10
-7.07
 20
6.575
 30
0.0
 11
-6.95
 21
6.575
 31
0.0
  0
LINE
  8
0
 62
0
 10
-7.07
 20
6.575
 30
0.0
 11
-6.95
 21
6.575
 31
0.0
  0
LINE
  8
0
 62
0
 10
-7.07
 20
-5.98
 30
0.0
 11
-6.95
 21
-5.98
 31
0.0
  0
LINE
  8
0
 62
0
 10
-7.07
 20
-6.78
 30
0.0
 11
-6.95
 21
-6.78
 31
0.0
  0
LINE
  8
0
 62
0
 10
-2.7
 20
4.61
 30
0.0
 11
-2.7
 21
3.83268051856
 31
0.0
  0
LINE
  8
0
 62
0
 10
-3.1
 20
4.61
 30
0.0
 11
-3.05
 21
4.61
 31
0.0
  0
LINE
  8
0
 62
0
 10
-2.75
 20
5.15
 30
0.0
 11
-2.75
 21
4.61
 31
0.0
  0
LINE
  8
0
 62
0
 10
-2.75
 20
4.61
 30
0.0
 11
-2.7
 21
4.61
 31
0.0
  0
LINE
  8
0
 62
0
 10
-2.75
 20
5.30349940838
 30
0.0
 11
-2.75
 21
5.15
 31
0.0
  0
LINE
  8
0
 62
0
 10
-2.75
 20
5.45083217913
 30
0.0
 11
-2.75
 21
5.30349940838
 31
0.0
  0
LINE
  8
0
 62
0
 10
-2.75
 20
5.95
 30
0.0
 11
-2.75
 21
5.45083217913
 31
0.0
  0
LINE
  8
0
 62
0
 10
-3.05
 20
5.45083217913
 30
0.0
 11
-2.75
 21
5.45083217913
 31
0.0
  0
LINE
  8
0
 62
0
 10
-3.05
 20
5.95
 30
0.0
 11
-2.75
 21
5.95
 31
0.0
  0
LINE
  8
0
 62
0
 10
-2.0
 20
4.61
 30
0.0
 11
-2.0
 21
3.71315910211
 31
0.0
  0
LINE
  8
0
 62
0
 10
-2.025
 20
3.71697972451
 30
0.0
 11
-2.025
 21
4.71
 31
0.0
  0
LINE
  8
0
 62
0
 10
-1.95
 20
5.95
 30
0.0
 11
-1.95
 21
5.45083217913
 31
0.0
  0
LINE
  8
0
 62
0
 10
-1.95
 20
5.45083217913
 30
0.0
 11
-1.95
 21
5.30349940838
 31
0.0
  0
LINE
  8
0
 62
0
 10
-1.95
 20
5.30349940838
 30
0.0
 11
-1.95
 21
5.15
 31
0.0
  0
LINE
  8
0
 62
0
 10
-1.95
 20
5.15
 30
0.0
 11
-1.95
 21
4.61
 31
0.0
  0
LINE
  8
0
 62
0
 10
-1.65
 20
5.15
 30
0.0
 11
-1.65
 21
4.61
 31
0.0
  0
LINE
  8
0
 62
0
 10
-1.65
 20
5.30349940838
 30
0.0
 11
-1.65
 21
5.15
 31
0.0
  0
LINE
  8
0
 62
0
 10
-1.65
 20
5.45083217913
 30
0.0
 11
-1.65
 21
5.30349940838
 31
0.0
  0
LINE
  8
0
 62
0
 10
-1.65
 20
5.95
 30
0.0
 11
-1.65
 21
5.45083217913
 31
0.0
  0
LINE
  8
0
 62
0
 10
-2.0
 20
4.61
 30
0.0
 11
-1.95
 21
4.61
 31
0.0
  0
LINE
  8
0
 62
0
 10
-1.65
 20
4.61
 30
0.0
 11
-1.6
 21
4.61
 31
0.0
  0
LINE
  8
0
 62
0
 10
-1.6
 20
4.61
 30
0.0
 11
-1.6
 21
3.65650237226
 31
0.0
  0
LINE
  8
0
 62
0
 10
-1.95
 20
5.45083217913
 30
0.0
 11
-1.65
 21
5.45083217913
 31
0.0
  0
LINE
  8
0
 62
0
 10
-1.95
 20
5.95
 30
0.0
 11
-1.65
 21
5.95
 31
0.0
  0
LINE
  8
0
 62
0
 10
-0.9
 20
4.61
 30
0.0
 11
-0.9
 21
3.57745918176
 31
0.0
  0
LINE
  8
0
 62
0
 10
-0.925
 20
3.57984439099
 30
0.0
 11
-0.925
 21
4.71
 31
0.0
  0
LINE
  8
0
 62
0
 10
-0.475
 20
3.54184377299
 30
0.0
 11
-0.475
 21
4.71
 31
0.0
  0
LINE
  8
0
 62
0
 10
-0.85
 20
5.95
 30
0.0
 11
-0.85
 21
5.45083217913
 31
0.0
  0
LINE
  8
0
 62
0
 10
-0.85
 20
5.45083217913
 30
0.0
 11
-0.85
 21
5.30349940838
 31
0.0
  0
LINE
  8
0
 62
0
 10
-0.85
 20
5.30349940838
 30
0.0
 11
-0.85
 21
5.15
 31
0.0
  0
LINE
  8
0
 62
0
 10
-0.85
 20
5.15
 30
0.0
 11
-0.85
 21
4.61
 31
0.0
  0
LINE
  8
0
 62
0
 10
-0.55
 20
5.15
 30
0.0
 11
-0.55
 21
4.61
 31
0.0
  0
LINE
  8
0
 62
0
 10
-0.55
 20
5.30349940838
 30
0.0
 11
-0.55
 21
5.15
 31
0.0
  0
LINE
  8
0
 62
0
 10
-0.55
 20
5.45083217913
 30
0.0
 11
-0.55
 21
5.30349940838
 31
0.0
  0
LINE
  8
0
 62
0
 10
-0.55
 20
5.95
 30
0.0
 11
-0.55
 21
5.45083217913
 31
0.0
  0
LINE
  8
0
 62
0
 10
-0.9
 20
4.61
 30
0.0
 11
-0.85
 21
4.61
 31
0.0
  0
LINE
  8
0
 62
0
 10
-0.55
 20
4.61
 30
0.0
 11
-0.5
 21
4.61
 31
0.0
  0
LINE
  8
0
 62
0
 10
-0.5
 20
4.61
 30
0.0
 11
-0.5
 21
3.54368132802
 31
0.0
  0
LINE
  8
0
 62
0
 10
-0.85
 20
5.45083217913
 30
0.0
 11
-0.55
 21
5.45083217913
 31
0.0
  0
LINE
  8
0
 62
0
 10
-0.85
 20
5.95
 30
0.0
 11
-0.55
 21
5.95
 31
0.0
  0
LINE
  8
0
 62
0
 10
0.2
 20
4.61
 30
0.0
 11
0.2
 21
3.50434742092
 31
0.0
  0
LINE
  8
0
 62
0
 10
0.2
 20
-1.42
 30
0.0
 11
0.2
 21
-2.16879463484
 31
0.0
  0
LINE
  8
0
 62
0
 10
0.2
 20
-2.16879463484
 30
0.0
 11
0.2
 21
-2.34641609975
 31
0.0
  0
LINE
  8
0
 62
0
 10
0.2
 20
-2.34641609974
 30
0.0
 11
0.2
 21
-2.59939080759
 31
0.0
  0
LINE
  8
0
 62
0
 10
0.175
 20
3.50532023737
 30
0.0
 11
0.175
 21
4.71
 31
0.0
  0
LINE
  8
0
 62
0
 10
0.25
 20
5.95
 30
0.0
 11
0.25
 21
5.45083217913
 31
0.0
  0
LINE
  8
0
 62
0
 10
0.25
 20
5.45083217913
 30
0.0
 11
0.25
 21
5.30349940838
 31
0.0
  0
LINE
  8
0
 62
0
 10
0.25
 20
5.30349940838
 30
0.0
 11
0.25
 21
5.15
 31
0.0
  0
LINE
  8
0
 62
0
 10
0.25
 20
5.15
 30
0.0
 11
0.25
 21
4.61
 31
0.0
  0
LINE
  8
0
 62
0
 10
0.55
 20
5.15
 30
0.0
 11
0.55
 21
4.61
 31
0.0
  0
LINE
  8
0
 62
0
 10
0.55
 20
5.30349940838
 30
0.0
 11
0.55
 21
5.15
 31
0.0
  0
LINE
  8
0
 62
0
 10
0.55
 20
5.45083217913
 30
0.0
 11
0.55
 21
5.30349940838
 31
0.0
  0
LINE
  8
0
 62
0
 10
0.55
 20
5.95
 30
0.0
 11
0.55
 21
5.45083217913
 31
0.0
  0
LINE
  8
0
 62
0
 10
0.2
 20
4.61
 30
0.0
 11
0.25
 21
4.61
 31
0.0
  0
LINE
  8
0
 62
0
 10
0.55
 20
4.61
 30
0.0
 11
0.6
 21
4.61
 31
0.0
  0
LINE
  8
0
 62
0
 10
0.6
 20
4.61
 30
0.0
 11
0.6
 21
3.49312365521
 31
0.0
  0
LINE
  8
0
 62
0
 10
0.25
 20
5.45083217913
 30
0.0
 11
0.55
 21
5.45083217913
 31
0.0
  0
LINE
  8
0
 62
0
 10
0.25
 20
5.95
 30
0.0
 11
0.55
 21
5.95
 31
0.0
  0
LINE
  8
0
 62
0
 10
0.6
 20
-2.34641609974
 30
0.0
 11
0.6
 21
-2.59939080759
 31
0.0
  0
LINE
  8
0
 62
0
 10
0.6
 20
-2.16879463484
 30
0.0
 11
0.6
 21
-2.34641609975
 31
0.0
  0
LINE
  8
0
 62
0
 10
0.6
 20
-1.42
 30
0.0
 11
0.6
 21
-2.16879463484
 31
0.0
  0
LINE
  8
0
 62
0
 10
0.2
 20
-2.59939080759
 30
0.0
 11
0.6
 21
-2.59939080759
 31
0.0
  0
LINE
  8
0
 62
0
 10
1.3
 20
4.61
 30
0.0
 11
1.3
 21
3.49312365521
 31
0.0
  0
LINE
  8
0
 62
0
 10
1.275
 20
3.49269332621
 30
0.0
 11
1.275
 21
4.71
 31
0.0
  0
LINE
  8
0
 62
0
 10
1.35
 20
5.95
 30
0.0
 11
1.35
 21
5.45083217913
 31
0.0
  0
LINE
  8
0
 62
0
 10
1.35
 20
5.45083217913
 30
0.0
 11
1.35
 21
5.30349940838
 31
0.0
  0
LINE
  8
0
 62
0
 10
1.35
 20
5.30349940838
 30
0.0
 11
1.35
 21
5.15
 31
0.0
  0
LINE
  8
0
 62
0
 10
1.35
 20
5.15
 30
0.0
 11
1.35
 21
4.61
 31
0.0
  0
LINE
  8
0
 62
0
 10
1.65
 20
5.15
 30
0.0
 11
1.65
 21
4.61
 31
0.0
  0
LINE
  8
0
 62
0
 10
1.65
 20
5.30349940838
 30
0.0
 11
1.65
 21
5.15
 31
0.0
  0
LINE
  8
0
 62
0
 10
1.65
 20
5.45083217913
 30
0.0
 11
1.65
 21
5.30349940838
 31
0.0
  0
LINE
  8
0
 62
0
 10
1.65
 20
5.95
 30
0.0
 11
1.65
 21
5.45083217913
 31
0.0
  0
LINE
  8
0
 62
0
 10
1.3
 20
4.61
 30
0.0
 11
1.35
 21
4.61
 31
0.0
  0
LINE
  8
0
 62
0
 10
1.65
 20
4.61
 30
0.0
 11
1.7
 21
4.61
 31
0.0
  0
LINE
  8
0
 62
0
 10
1.7
 20
4.61
 30
0.0
 11
1.7
 21
3.50434742092
 31
0.0
  0
LINE
  8
0
 62
0
 10
1.35
 20
5.45083217913
 30
0.0
 11
1.65
 21
5.45083217913
 31
0.0
  0
LINE
  8
0
 62
0
 10
1.35
 20
5.95
 30
0.0
 11
1.65
 21
5.95
 31
0.0
  0
LINE
  8
0
 62
0
 10
2.4
 20
4.61
 30
0.0
 11
2.4
 21
3.54368132802
 31
0.0
  0
LINE
  8
0
 62
0
 10
2.4
 20
-1.42
 30
0.0
 11
2.4
 21
-2.16879463484
 31
0.0
  0
LINE
  8
0
 62
0
 10
2.4
 20
-2.16879463484
 30
0.0
 11
2.4
 21
-2.34641609975
 31
0.0
  0
LINE
  8
0
 62
0
 10
2.4
 20
-2.34641609974
 30
0.0
 11
2.4
 21
-2.59939080759
 31
0.0
  0
LINE
  8
0
 62
0
 10
2.375
 20
3.54184377299
 30
0.0
 11
2.375
 21
4.71
 31
0.0
  0
LINE
  8
0
 62
0
 10
2.45
 20
5.95
 30
0.0
 11
2.45
 21
5.45083217913
 31
0.0
  0
LINE
  8
0
 62
0
 10
2.45
 20
5.45083217913
 30
0.0
 11
2.45
 21
5.30349940838
 31
0.0
  0
LINE
  8
0
 62
0
 10
2.45
 20
5.30349940838
 30
0.0
 11
2.45
 21
5.15
 31
0.0
  0
LINE
  8
0
 62
0
 10
2.45
 20
5.15
 30
0.0
 11
2.45
 21
4.61
 31
0.0
  0
LINE
  8
0
 62
0
 10
2.75
 20
5.15
 30
0.0
 11
2.75
 21
4.61
 31
0.0
  0
LINE
  8
0
 62
0
 10
2.75
 20
5.30349940838
 30
0.0
 11
2.75
 21
5.15
 31
0.0
  0
LINE
  8
0
 62
0
 10
2.75
 20
5.45083217913
 30
0.0
 11
2.75
 21
5.30349940838
 31
0.0
  0
LINE
  8
0
 62
0
 10
2.75
 20
5.95
 30
0.0
 11
2.75
 21
5.45083217913
 31
0.0
  0
LINE
  8
0
 62
0
 10
2.4
 20
4.61
 30
0.0
 11
2.45
 21
4.61
 31
0.0
  0
LINE
  8
0
 62
0
 10
2.75
 20
4.61
 30
0.0
 11
2.8
 21
4.61
 31
0.0
  0
LINE
  8
0
 62
0
 10
2.8
 20
4.61
 30
0.0
 11
2.8
 21
3.57745918176
 31
0.0
  0
LINE
  8
0
 62
0
 10
2.45
 20
5.45083217913
 30
0.0
 11
2.75
 21
5.45083217913
 31
0.0
  0
LINE
  8
0
 62
0
 10
2.45
 20
5.95
 30
0.0
 11
2.75
 21
5.95
 31
0.0
  0
LINE
  8
0
 62
0
 10
2.8
 20
-2.34641609974
 30
0.0
 11
2.8
 21
-2.59939080759
 31
0.0
  0
LINE
  8
0
 62
0
 10
2.8
 20
-2.16879463484
 30
0.0
 11
2.8
 21
-2.34641609975
 31
0.0
  0
LINE
  8
0
 62
0
 10
2.8
 20
-1.42
 30
0.0
 11
2.8
 21
-2.16879463484
 31
0.0
  0
LINE
  8
0
 62
0
 10
2.4
 20
-2.59939080759
 30
0.0
 11
2.8
 21
-2.59939080759
 31
0.0
  0
LINE
  8
0
 62
0
 10
3.475
 20
3.65323998708
 30
0.0
 11
3.475
 21
4.71
 31
0.0
  0
LINE
  8
0
 62
0
 10
3.55
 20
5.95
 30
0.0
 11
3.55
 21
5.45083217913
 31
0.0
  0
LINE
  8
0
 62
0
 10
3.55
 20
5.45083217913
 30
0.0
 11
3.55
 21
5.30349940838
 31
0.0
  0
LINE
  8
0
 62
0
 10
3.55
 20
5.30349940838
 30
0.0
 11
3.55
 21
5.15
 31
0.0
  0
LINE
  8
0
 62
0
 10
3.55
 20
5.15
 30
0.0
 11
3.55
 21
4.61
 31
0.0
  0
LINE
  8
0
 62
0
 10
3.85
 20
5.15
 30
0.0
 11
3.85
 21
4.61
 31
0.0
  0
LINE
  8
0
 62
0
 10
3.85
 20
5.30349940838
 30
0.0
 11
3.85
 21
5.15
 31
0.0
  0
LINE
  8
0
 62
0
 10
3.85
 20
5.45083217913
 30
0.0
 11
3.85
 21
5.30349940838
 31
0.0
  0
LINE
  8
0
 62
0
 10
3.85
 20
5.95
 30
0.0
 11
3.85
 21
5.45083217913
 31
0.0
  0
LINE
  8
0
 62
0
 10
3.5
 20
4.61
 30
0.0
 11
3.55
 21
4.61
 31
0.0
  0
LINE
  8
0
 62
0
 10
3.85
 20
4.61
 30
0.0
 11
3.9
 21
4.61
 31
0.0
  0
LINE
  8
0
 62
0
 10
3.9
 20
4.61
 30
0.0
 11
3.9
 21
3.71315910211
 31
0.0
  0
LINE
  8
0
 62
0
 10
3.5
 20
4.61
 30
0.0
 11
3.5
 21
3.65650237226
 31
0.0
  0
LINE
  8
0
 62
0
 10
3.55
 20
5.45083217913
 30
0.0
 11
3.85
 21
5.45083217913
 31
0.0
  0
LINE
  8
0
 62
0
 10
3.55
 20
5.95
 30
0.0
 11
3.85
 21
5.95
 31
0.0
  0
LINE
  8
0
 62
0
 10
4.65
 20
5.30349940838
 30
0.0
 11
4.95
 21
5.30349940838
 31
0.0
  0
LINE
  8
0
 62
0
 10
4.65
 20
5.15
 30
0.0
 11
4.95
 21
5.15
 31
0.0
  0
LINE
  8
0
 62
0
 10
-6.56
 20
7.26
 30
0.0
 11
-5.29
 21
7.26
 31
0.0
  0
LINE
  8
0
 62
0
 10
6.88
 20
1.6
 30
0.0
 11
6.88
 21
5.95
 31
0.0
  0
LINE
  8
0
 62
0
 10
6.88
 20
-0.06
 30
0.0
 11
6.88
 21
0.6
 31
0.0
  0
LINE
  8
0
 62
0
 10
6.88
 20
-5.55
 30
0.0
 11
6.88
 21
-5.22
 31
0.0
  0
LINE
  8
0
 62
0
 10
6.88
 20
-7.0
 30
0.0
 11
6.88
 21
-6.55
 31
0.0
  0
LINE
  8
0
 62
0
 10
4.48
 20
-6.93
 30
0.0
 11
5.48
 21
-6.93
 31
0.0
  0
LINE
  8
0
 62
0
 10
-2.3
 20
-6.93
 30
0.0
 11
-3.3
 21
-6.93
 31
0.0
  0
LINE
  8
0
 62
0
 10
-6.88
 20
-7.22
 30
0.0
 11
-6.88
 21
-1.59
 31
0.0
  0
LINE
  8
0
 62
0
 10
-6.88
 20
3.49
 30
0.0
 11
-6.88
 21
7.0
 31
0.0
  0
LINE
  8
0
 62
0
 10
-7.07
 20
7.35
 30
0.0
 11
-6.95
 21
7.35
 31
0.0
  0
LINE
  8
0
 62
0
 10
-7.14
 20
-7.22
 30
0.0
 11
-7.14
 21
-5.52
 31
0.0
  0
LINE
  8
0
 62
0
 10
-6.95
 20
3.15838483801
 30
0.0
 11
-7.07
 21
3.15838483801
 31
0.0
  0
LINE
  8
0
 62
0
 10
-7.07
 20
-1.18
 30
0.0
 11
-6.95
 21
-1.18
 31
0.0
  0
LINE
  8
0
 62
0
 10
-7.07
 20
-1.29
 30
0.0
 11
-6.95
 21
-1.29
 31
0.0
  0
LINE
  8
0
 62
0
 10
-7.07
 20
-1.51
 30
0.0
 11
-6.95
 21
-1.51
 31
0.0
  0
LINE
  8
0
 62
0
 10
7.07
 20
0.75
 30
0.0
 11
6.95
 21
0.75
 31
0.0
  0
LINE
  8
0
 62
0
 10
7.07
 20
1.45
 30
0.0
 11
6.95
 21
1.45
 31
0.0
  0
LINE
  8
0
 62
0
 10
7.07
 20
-5.7
 30
0.0
 11
6.95
 21
-5.7
 31
0.0
  0
LINE
  8
0
 62
0
 10
7.07
 20
-6.4
 30
0.0
 11
6.95
 21
-6.4
 31
0.0
  0
LINE
  8
0
 62
0
 10
7.07
 20
-7.15
 30
0.0
 11
6.95
 21
-7.15
 31
0.0
  0
LINE
  8
0
 62
0
 10
-2.3
 20
-7.15
 30
0.0
 11
-3.3
 21
-7.15
 31
0.0
  0
LINE
  8
0
 62
0
 10
4.48
 20
-7.15
 30
0.0
 11
5.48
 21
-7.15
 31
0.0
  0
LINE
  8
0
 62
0
 10
7.14
 20
5.95
 30
0.0
 11
7.14
 21
4.25
 31
0.0
  0
LINE
  8
0
 62
0
 10
-7.07
 20
7.1
 30
0.0
 11
-6.95
 21
7.1
 31
0.0
  0
LINE
  8
0
 62
0
 10
-6.95
 20
-5.22
 30
0.0
 11
-7.07
 21
-5.22
 31
0.0
  0
LINE
  8
0
 62
0
 10
-6.95
 20
6.25
 30
0.0
 11
-7.07
 21
6.25
 31
0.0
  0
LINE
  8
0
 62
0
 10
-6.95
 20
3.65
 30
0.0
 11
-7.07
 21
3.65
 31
0.0
  0
LINE
  8
0
 62
0
 10
-6.95
 20
-1.88
 30
0.0
 11
-7.07
 21
-1.88
 31
0.0
  0
LINE
  8
0
 62
0
 10
-6.95
 20
-2.74
 30
0.0
 11
-7.07
 21
-2.74
 31
0.0
  0
LINE
  8
0
 62
0
 10
-7.14
 20
3.95
 30
0.0
 11
-7.14
 21
5.95
 31
0.0
  0
LINE
  8
0
 62
0
 10
-7.07
 20
-2.03
 30
0.0
 11
-6.95
 21
-2.03
 31
0.0
  0
LINE
  8
0
 62
0
 10
-7.07
 20
-2.59
 30
0.0
 11
-6.95
 21
-2.59
 31
0.0
  0
LINE
  8
0
 62
0
 10
-7.07
 20
5.475
 30
0.0
 11
-6.95
 21
5.475
 31
0.0
  0
LINE
  8
0
 62
0
 10
-7.07
 20
4.425
 30
0.0
 11
-6.95
 21
4.425
 31
0.0
  0
LINE
  8
0
 62
0
 10
-7.07
 20
6.875
 30
0.0
 11
-6.95
 21
6.875
 31
0.0
  0
LINE
  8
0
 62
0
 10
-7.07
 20
6.625
 30
0.0
 11
-6.95
 21
6.625
 31
0.0
  0
LINE
  8
0
 62
0
 10
-7.07
 20
-6.03
 30
0.0
 11
-6.95
 21
-6.03
 31
0.0
  0
LINE
  8
0
 62
0
 10
-7.07
 20
-6.73
 30
0.0
 11
-6.95
 21
-6.73
 31
0.0
  0
LINE
  8
0
 62
0
 10
-3.05
 20
5.15
 30
0.0
 11
-2.75
 21
5.15
 31
0.0
  0
LINE
  8
0
 62
0
 10
-3.05
 20
5.30349940838
 30
0.0
 11
-2.75
 21
5.30349940838
 31
0.0
  0
LINE
  8
0
 62
0
 10
-1.95
 20
5.15
 30
0.0
 11
-1.65
 21
5.15
 31
0.0
  0
LINE
  8
0
 62
0
 10
-1.95
 20
5.30349940838
 30
0.0
 11
-1.65
 21
5.30349940838
 31
0.0
  0
LINE
  8
0
 62
0
 10
-0.85
 20
5.15
 30
0.0
 11
-0.55
 21
5.15
 31
0.0
  0
LINE
  8
0
 62
0
 10
-0.85
 20
5.30349940838
 30
0.0
 11
-0.55
 21
5.30349940838
 31
0.0
  0
LINE
  8
0
 62
0
 10
0.25
 20
5.15
 30
0.0
 11
0.55
 21
5.15
 31
0.0
  0
LINE
  8
0
 62
0
 10
0.25
 20
5.30349940838
 30
0.0
 11
0.55
 21
5.30349940838
 31
0.0
  0
LINE
  8
0
 62
0
 10
0.2
 20
-2.34641609974
 30
0.0
 11
0.6
 21
-2.34641609974
 31
0.0
  0
LINE
  8
0
 62
0
 10
0.2
 20
-2.16879463484
 30
0.0
 11
0.6
 21
-2.16879463484
 31
0.0
  0
LINE
  8
0
 62
0
 10
1.35
 20
5.15
 30
0.0
 11
1.65
 21
5.15
 31
0.0
  0
LINE
  8
0
 62
0
 10
1.35
 20
5.30349940838
 30
0.0
 11
1.65
 21
5.30349940838
 31
0.0
  0
LINE
  8
0
 62
0
 10
2.45
 20
5.15
 30
0.0
 11
2.75
 21
5.15
 31
0.0
  0
LINE
  8
0
 62
0
 10
2.45
 20
5.30349940838
 30
0.0
 11
2.75
 21
5.30349940838
 31
0.0
  0
LINE
  8
0
 62
0
 10
2.4
 20
-2.34641609974
 30
0.0
 11
2.8
 21
-2.34641609974
 31
0.0
  0
LINE
  8
0
 62
0
 10
2.4
 20
-2.16879463484
 30
0.0
 11
2.8
 21
-2.16879463484
 31
0.0
  0
LINE
  8
0
 62
0
 10
3.55
 20
5.15
 30
0.0
 11
3.85
 21
5.15
 31
0.0
  0
LINE
  8
0
 62
0
 10
3.55
 20
5.30349940838
 30
0.0
 11
3.85
 21
5.30349940838
 31
0.0
  0
ENDBLK
  0
BLOCK
  8
0
  2
PART__FEATURE008
 70
0
 10
0.0
 20
0.0
 30
0.0
  3
PART__FEATURE008
  0
POLYLINE
  8
0
 62
0
 70
1
 66
1
 10
0.0
 20
0.0
 30
0.0
  0
VERTEX
  8
0
 10
-6.77
 20
6.2
  0
VERTEX
  8
0
 10
-6.77
 20
3.7
  0
VERTEX
  8
0
 10
-7.72
 20
3.7
  0
VERTEX
  8
0
 10
-7.72
 20
6.2
  0
SEQEND
  8
0
  0
POLYLINE
  8
0
 62
0
 70
1
 66
1
 10
0.0
 20
0.0
 30
0.0
  0
VERTEX
  8
0
 10
-6.57
 20
-5.28
  0
VERTEX
  8
0
 10
-6.57
 20
-7.48
  0
VERTEX
  8
0
 10
-7.72
 20
-7.48
  0
VERTEX
  8
0
 10
-7.72
 20
-5.28
  0
SEQEND
  8
0
  0
POLYLINE
  8
0
 62
0
 70
1
 66
1
 10
0.0
 20
0.0
 30
0.0
  0
VERTEX
  8
0
 10
7.72
 20
6.2
  0
VERTEX
  8
0
 10
7.72
 20
4.0
  0
VERTEX
  8
0
 10
6.57
 20
4.0
  0
VERTEX
  8
0
 10
6.57
 20
6.2
  0
SEQEND
  8
0
  0
POLYLINE
  8
0
 62
0
 70
1
 66
1
 10
0.0
 20
0.0
 30
0.0
  0
VERTEX
  8
0
 10
7.32
 20
3.575
  0
VERTEX
  8
0
 10
7.32
 20
2.325
  0
VERTEX
  8
0
 10
6.16
 20
2.325
  0
VERTEX
  8
0
 10
6.16
 20
3.575
  0
SEQEND
  8
0
  0
POLYLINE
  8
0
 62
0
 70
1
 66
1
 10
0.0
 20
0.0
 30
0.0
  0
VERTEX
  8
0
 10
7.32
 20
-5.45
  0
VERTEX
  8
0
 10
7.32
 20
-6.65
  0
VERTEX
  8
0
 10
6.16
 20
-6.65
  0
VERTEX
  8
0
 10
6.16
 20
-5.45
  0
SEQEND
  8
0
  0
POLYLINE
  8
0
 62
0
 70
1
 66
1
 10
0.0
 20
0.0
 30
0.0
  0
VERTEX
  8
0
 10
5.69
 20
-6.6
  0
VERTEX
  8
0
 10
5.69
 20
-7.75
  0
VERTEX
  8
0
 10
4.19
 20
-7.75
  0
VERTEX
  8
0
 10
4.19
 20
-6.6
  0
SEQEND
  8
0
  0
POLYLINE
  8
0
 62
0
 70
1
 66
1
 10
0.0
 20
0.0
 30
0.0
  0
VERTEX
  8
0
 10
-2.09
 20
-6.6
  0
VERTEX
  8
0
 10
-2.09
 20
-7.75
  0
VERTEX
  8
0
 10
-3.59
 20
-7.75
  0
VERTEX
  8
0
 10
-3.59
 20
-6.6
  0
SEQEND
  8
0
  0
POLYLINE
  8
0
 62
0
 70
1
 66
1
 10
0.0
 20
0.0
 30
0.0
  0
VERTEX
  8
0
 10
-2.5
 20
6.2
  0
VERTEX
  8
0
 10
-2.5
 20
4.96
  0
VERTEX
  8
0
 10
-3.3
 20
4.96
  0
VERTEX
  8
0
 10
-3.3
 20
6.2
  0
SEQEND
  8
0
  0
POLYLINE
  8
0
 62
0
 70
1
 66
1
 10
0.0
 20
0.0
 30
0.0
  0
VERTEX
  8
0
 10
-1.4
 20
6.2
  0
VERTEX
  8
0
 10
-1.4
 20
4.96
  0
VERTEX
  8
0
 10
-2.2
 20
4.96
  0
VERTEX
  8
0
 10
-2.2
 20
6.2
  0
SEQEND
  8
0
  0
POLYLINE
  8
0
 62
0
 70
1
 66
1
 10
0.0
 20
0.0
 30
0.0
  0
VERTEX
  8
0
 10
-0.3
 20
6.2
  0
VERTEX
  8
0
 10
-0.3
 20
4.96
  0
VERTEX
  8
0
 10
-1.1
 20
4.96
  0
VERTEX
  8
0
 10
-1.1
 20
6.2
  0
SEQEND
  8
0
  0
POLYLINE
  8
0
 62
0
 70
1
 66
1
 10
0.0
 20
0.0
 30
0.0
  0
VERTEX
  8
0
 10
0.8
 20
6.2
  0
VERTEX
  8
0
 10
0.8
 20
4.96
  0
VERTEX
  8
0
 10
0.0
 20
4.96
  0
VERTEX
  8
0
 10
0.0
 20
6.2
  0
SEQEND
  8
0
  0
POLYLINE
  8
0
 62
0
 70
1
 66
1
 10
0.0
 20
0.0
 30
0.0
  0
VERTEX
  8
0
 10
1.9
 20
6.2
  0
VERTEX
  8
0
 10
1.9
 20
4.96
  0
VERTEX
  8
0
 10
1.1
 20
4.96
  0
VERTEX
  8
0
 10
1.1
 20
6.2
  0
SEQEND
  8
0
  0
POLYLINE
  8
0
 62
0
 70
1
 66
1
 10
0.0
 20
0.0
 30
0.0
  0
VERTEX
  8
0
 10
3.0
 20
6.2
  0
VERTEX
  8
0
 10
3.0
 20
4.96
  0
VERTEX
  8
0
 10
2.2
 20
4.96
  0
VERTEX
  8
0
 10
2.2
 20
6.2
  0
SEQEND
  8
0
  0
POLYLINE
  8
0
 62
0
 70
1
 66
1
 10
0.0
 20
0.0
 30
0.0
  0
VERTEX
  8
0
 10
4.1
 20
6.2
  0
VERTEX
  8
0
 10
4.1
 20
4.96
  0
VERTEX
  8
0
 10
3.3
 20
4.96
  0
VERTEX
  8
0
 10
3.3
 20
6.2
  0
SEQEND
  8
0
  0
POLYLINE
  8
0
 62
0
 70
1
 66
1
 10
0.0
 20
0.0
 30
0.0
  0
VERTEX
  8
0
 10
5.2
 20
6.2
  0
VERTEX
  8
0
 10
5.2
 20
4.96
  0
VERTEX
  8
0
 10
4.4
 20
4.96
  0
VERTEX
  8
0
 10
4.4
 20
6.2
  0
SEQEND
  8
0
  0
LINE
  8
0
 62
0
 10
3.99
 20
-4.85
 30
-0.245
 11
3.99
 21
-4.85
 31
-0.675
  0
LINE
  8
0
 62
0
 10
-2.01
 20
-4.85
 30
-0.245
 11
-2.01
 21
-4.85
 31
-0.675
  0
LINE
  8
0
 62
0
 10
-6.445
 20
5.736
 30
0.605
 11
-6.445
 21
5.736
 31
-0.525
  0
ENDBLK
  0
BLOCK
  8
0
  2
PART__FEATURE005
 70
0
 10
0.0
 20
0.0
 30
0.0
  3
PART__FEATURE005
  0
LINE
  8
0
 62
0
 10
7.07
 20
4.55
 30
0.0
 11
7.07
 21
5.65
 31
0.0
  0
LINE
  8
0
 62
0
 10
7.07
 20
4.55
 30
0.0
 11
6.95
 21
4.55
 31
0.0
  0
LINE
  8
0
 62
0
 10
6.95
 20
4.55
 30
0.0
 11
6.95
 21
5.65
 31
0.0
  0
LINE
  8
0
 62
0
 10
7.07
 20
5.65
 30
0.0
 11
6.95
 21
5.65
 31
0.0
  0
ENDBLK
  0
BLOCK
  8
0
  2
PART__FEATURE001
 70
0
 10
0.0
 20
0.0
 30
0.0
  3
PART__FEATURE001
  0
LINE
  8
0
 62
0
 10
-6.95
 20
5.45
 30
0.0
 11
-6.95
 21
4.45
 31
0.0
  0
LINE
  8
0
 62
0
 10
-7.07
 20
4.45
 30
0.0
 11
-6.95
 21
4.45
 31
0.0
  0
LINE
  8
0
 62
0
 10
-7.07
 20
5.45
 30
0.0
 11
-7.07
 21
4.45
 31
0.0
  0
LINE
  8
0
 62
0
 10
-7.07
 20
5.45
 30
0.0
 11
-6.95
 21
5.45
 31
0.0
  0
ENDBLK
  0
BLOCK
  8
0
  2
PART__FEATURE006
 70
0
 10
0.0
 20
0.0
 30
0.0
  3
PART__FEATURE006
  0
LINE
  8
0
 62
0
 10
-3.06
 20
-7.1
 30
0.0
 11
-2.54
 21
-7.1
 31
0.0
  0
LINE
  8
0
 62
0
 10
-3.06
 20
-7.1
 30
0.0
 11
-3.06
 21
-6.98
 31
0.0
  0
LINE
  8
0
 62
0
 10
-3.06
 20
-6.98
 30
0.0
 11
-2.54
 21
-6.98
 31
0.0
  0
LINE
  8
0
 62
0
 10
-2.54
 20
-7.1
 30
0.0
 11
-2.54
 21
-6.98
 31
0.0
  0
ENDBLK
  0
BLOCK
  8
0
  2
PART__FEATURE003
 70
0
 10
0.0
 20
0.0
 30
0.0
  3
PART__FEATURE003
  0
LINE
  8
0
 62
0
 10
-6.95
 20
1.495
 30
0.0
 11
-6.95
 21
0.605
 31
0.0
  0
LINE
  8
0
 62
0
 10
-7.07
 20
0.605
 30
0.0
 11
-6.95
 21
0.605
 31
0.0
  0
LINE
  8
0
 62
0
 10
-7.07
 20
1.495
 30
0.0
 11
-7.07
 21
0.605
 31
0.0
  0
LINE
  8
0
 62
0
 10
-7.07
 20
1.495
 30
0.0
 11
-6.95
 21
1.495
 31
0.0
  0
ENDBLK
  0
BLOCK
  8
0
  2
PART__FEATURE002
 70
0
 10
0.0
 20
0.0
 30
0.0
  3
PART__FEATURE002
  0
LINE
  8
0
 62
0
 10
-6.95
 20
6.89
 30
0.0
 11
-6.95
 21
6.61
 31
0.0
  0
LINE
  8
0
 62
0
 10
-7.07
 20
6.61
 30
0.0
 11
-6.95
 21
6.61
 31
0.0
  0
LINE
  8
0
 62
0
 10
-7.07
 20
6.89
 30
0.0
 11
-7.07
 21
6.61
 31
0.0
  0
LINE
  8
0
 62
0
 10
-7.07
 20
6.89
 30
0.0
 11
-6.95
 21
6.89
 31
0.0
  0
ENDBLK
  0
BLOCK
  8
0
  2
PART__FEATURE004
 70
0
 10
0.0
 20
0.0
 30
0.0
  3
PART__FEATURE004
  0
LINE
  8
0
 62
0
 10
-6.95
 20
-6.035
 30
0.0
 11
-6.95
 21
-6.725
 31
0.0
  0
LINE
  8
0
 62
0
 10
-7.07
 20
-6.725
 30
0.0
 11
-6.95
 21
-6.725
 31
0.0
  0
LINE
  8
0
 62
0
 10
-7.07
 20
-6.035
 30
0.0
 11
-7.07
 21
-6.725
 31
0.0
  0
LINE
  8
0
 62
0
 10
-7.07
 20
-6.035
 30
0.0
 11
-6.95
 21
-6.035
 31
0.0
  0
ENDBLK
  0
BLOCK
  8
0
  2
PART__FEATURE007
 70
0
 10
0.0
 20
0.0
 30
0.0
  3
PART__FEATURE007
  0
LINE
  8
0
 62
0
 10
4.72
 20
-6.98
 30
0.0
 11
5.24
 21
-6.98
 31
0.0
  0
LINE
  8
0
 62
0
 10
4.72
 20
-7.1
 30
0.0
 11
5.24
 21
-7.1
 31
0.0
  0
LINE
  8
0
 62
0
 10
4.72
 20
-7.1
 30
0.0
 11
4.72
 21
-6.98
 31
0.0
  0
LINE
  8
0
 62
0
 10
5.24
 20
-7.1
 30
0.0
 11
5.24
 21
-6.98
 31
0.0
  0
ENDBLK
  0
ENDSEC
  0
SECTION
  2
ENTITIES
  0
INSERT
  2
PART__FEATURE
  8
0
 10
0.0
 20
0.0
 30
0.0
  0
INSERT
  2
PART__FEATURE008
  8
0
 10
0.0
 20
0.0
 30
0.0
  0
INSERT
  2
PART__FEATURE005
  8
0
 10
0.0
 20
0.0
 30
0.0
  0
INSERT
  2
PART__FEATURE001
  8
0
 10
0.0
 20
0.0
 30
0.0
  0
INSERT
  2
PART__FEATURE006
  8
0
 10
0.0
 20
0.0
 30
0.0
  0
INSERT
  2
PART__FEATURE003
  8
0
 10
0.0
 20
0.0
 30
0.0
  0
INSERT
  2
PART__FEATURE002
  8
0
 10
0.0
 20
0.0
 30
0.0
  0
INSERT
  2
PART__FEATURE004
  8
0
 10
0.0
 20
0.0
 30
0.0
  0
INSERT
  2
PART__FEATURE007
  8
0
 10
0.0
 20
0.0
 30
0.0
  0
ENDSEC
  0
EOF
